<?xml version="1.0" standalone="no"?>
<!DOCTYPE svg PUBLIC "-//W3C//DTD SVG 1.1//EN" "http://www.w3.org/Graphics/SVG/1.1/DTD/svg11.dtd" >
<svg xmlns="http://www.w3.org/2000/svg" xmlns:xlink="http://www.w3.org/1999/xlink" version="1.1">
<metadata>
Created by FontForge 20170731 at Wed May 31 12:04:30 2017
 By Aleksey,,,
Copyright (c) 2017 by Graham Paterson. All rights reserved.
</metadata>
<defs>
<font id="Wavehaus-42Light" horiz-adv-x="648" >
  <font-face 
    font-family="Wavehaus 42 Light"
    font-weight="400"
    font-stretch="normal"
    units-per-em="1000"
    panose-1="0 0 5 0 0 0 0 0 0 0"
    ascent="800"
    descent="-200"
    x-height="500"
    cap-height="672"
    bbox="-24 -242 1057 790"
    underline-thickness="50"
    underline-position="-200"
    unicode-range="U+0020-2212"
  />
<missing-glyph horiz-adv-x="491" 
d="M402 745v-981h-311v981h311zM327 679h-162v-32h64v-36h-65v-33h163v33h-65v36h65v32zM262 553h-98v-102h163v33h-65v69zM229 519v-35h-33v35h33zM327 424h-163v-32h65v-36h-65v-33h98v69h65v32zM327 365h-33v-64h-130v-34h163v98zM327 246h-98v-55h33v22h32v-46h-98v79
h-32v-111h163v111zM327 76h-163v-111h163v111zM294 44v-47h-98v47h98zM327 -57h-163v-33h68l-68 -46v-32h163v32h-100l68 46h32v33z" />
    <glyph glyph-name=".notdef" horiz-adv-x="491" 
d="M402 745v-981h-311v981h311zM327 679h-162v-32h64v-36h-65v-33h163v33h-65v36h65v32zM262 553h-98v-102h163v33h-65v69zM229 519v-35h-33v35h33zM327 424h-163v-32h65v-36h-65v-33h98v69h65v32zM327 365h-33v-64h-130v-34h163v98zM327 246h-98v-55h33v22h32v-46h-98v79
h-32v-111h163v111zM327 76h-163v-111h163v111zM294 44v-47h-98v47h98zM327 -57h-163v-33h68l-68 -46v-32h163v32h-100l68 46h32v33z" />
    <glyph glyph-name=".null" horiz-adv-x="0" 
 />
    <glyph glyph-name="nonmarkingreturn" horiz-adv-x="333" 
 />
    <glyph glyph-name="space" unicode=" " horiz-adv-x="289" 
 />
    <glyph glyph-name="exclam" unicode="!" horiz-adv-x="203" 
d="M85 134l-4 538h42l-5 -538h-33zM82 0v56h39v-56h-39z" />
    <glyph glyph-name="quotedbl" unicode="&#x22;" horiz-adv-x="238" 
d="M58 497l-8 122h44l-8 -122h-28zM151 497l-7 122h44l-8 -122h-29z" />
    <glyph glyph-name="numbersign" unicode="#" horiz-adv-x="643" 
d="M593 385h-148l-32 -172h150v-35h-156l-33 -178h-38l33 178h-139l-33 -178h-38l33 178h-142v35h148l32 172h-150v36h156l33 178h38l-33 -178h139l33 178h38l-33 -178h142v-36zM375 213l32 172h-139l-32 -172h139z" />
    <glyph glyph-name="dollar" unicode="$" horiz-adv-x="482" 
d="M430 178q0 -59 -43 -102.5t-126 -47.5v-107h-40v109q-51 6 -96.5 31.5t-71.5 54.5l27 24q25 -26 70.5 -50t97.5 -24q67 0 105.5 30t38.5 82q0 44 -35 75t-85 51t-100 41t-85 58.5t-35 90.5q0 59 42.5 102t126.5 47v107h40v-109q50 -6 96.5 -31t71.5 -54l-28 -25
q-25 27 -70.5 50.5t-95.5 23.5q-69 0 -107 -29.5t-38 -81.5q0 -37 25 -66t63 -45t82 -35.5t82 -38t63 -52.5t25 -79z" />
    <glyph glyph-name="percent" unicode="%" horiz-adv-x="742" 
d="M197 314q-60 0 -103.5 43t-43.5 104q0 60 43.5 103t103.5 43q61 0 104 -42.5t43 -103.5t-43 -104t-104 -43zM110 0l473 599h49l-473 -599h-49zM197 351q45 0 77.5 32t32.5 78q0 45 -32.5 77.5t-77.5 32.5q-46 0 -78 -33.5t-32 -76.5q0 -44 32.5 -77t77.5 -33zM545 -8
q-61 0 -104 43t-43 103q0 61 43 104t104 43t104 -43t43 -104q0 -60 -43 -103t-104 -43zM545 31q44 0 76 31.5t32 75.5q0 46 -31.5 77t-76.5 31t-76.5 -31.5t-31.5 -76.5q0 -44 32 -75.5t76 -31.5z" />
    <glyph glyph-name="ampersand" unicode="&#x26;" horiz-adv-x="601" 
d="M576 385v-42h-70v-152q0 -83 -56 -141t-153 -58q-98 0 -162 48.5t-64 139.5q0 45 14.5 80t35 53t41 30t34.5 15l15 3q-4 1 -11 3.5t-25.5 13.5t-32 26t-25 42.5t-11.5 61.5q0 80 51.5 126.5t130.5 46.5q36 0 67 -9t49 -22.5t31 -26.5t18 -22l5 -9l-29 -29q-1 3 -4.5 8
t-15 18.5t-26 23.5t-39 18t-53.5 8q-63 0 -103 -37t-40 -96q0 -55 39 -88t107 -33h169v61h43v-61h70zM463 204v139h-169q-23 0 -51 -7.5t-59 -23.5t-51.5 -50t-20.5 -79q0 -63 48 -105.5t139 -42.5q71 0 117.5 49.5t46.5 119.5z" />
    <glyph glyph-name="quotesingle" unicode="'" horiz-adv-x="104" 
d="M39 497l-9 122h44l-8 -122h-27z" />
    <glyph glyph-name="parenleft" unicode="(" horiz-adv-x="314" 
d="M277 -119q-9 5 -24.5 16t-54.5 51.5t-69 88t-54.5 128t-24.5 170.5q0 66 12.5 126.5t32.5 105t44 82.5t48.5 63.5t44.5 43.5t32 26l13 8l23 -24q-9 -6 -23 -17t-50.5 -51t-64.5 -85.5t-51 -121t-23 -156.5t22 -155t53 -122t62 -84t53 -52l22 -16z" />
    <glyph glyph-name="parenright" unicode=")" horiz-adv-x="314" 
d="M38 -119l-24 25q9 6 23 17t51 50.5t65 85t51 120.5t23 156q0 59 -11.5 115t-30.5 98t-41.5 78.5t-45 61.5t-41.5 43t-31 27l-11 8l23 24q9 -5 24.5 -16t54.5 -51.5t68.5 -88t54 -128.5t24.5 -171q0 -66 -12.5 -126t-32.5 -104.5t-44 -82.5t-48 -63.5t-44 -43.5t-33 -26z
" />
    <glyph glyph-name="asterisk" unicode="*" horiz-adv-x="375" 
d="M345 543l-137 -39l88 -112l-29 -21l-79 117l-80 -117l-29 21l88 112l-137 39l11 34l134 -49l-5 143h36l-6 -143l134 49zM185 510l3 -3l2 3v3h-5v-3z" />
    <glyph glyph-name="plus" unicode="+" horiz-adv-x="615" 
d="M535 356v-40h-207v-207h-40v207h-207v40h207v207h40v-207h207z" />
    <glyph glyph-name="comma" unicode="," horiz-adv-x="178" 
d="M40 -47l44 149h54l-58 -149h-40z" />
    <glyph glyph-name="hyphen" unicode="-" horiz-adv-x="355" 
d="M305 316h-255v40h255v-40z" />
    <glyph glyph-name="period" unicode="." horiz-adv-x="148" 
d="M50 0v93h48v-93h-48z" />
    <glyph glyph-name="slash" unicode="/" horiz-adv-x="456" 
d="M40 0l325 673h51l-325 -673h-51z" />
    <glyph glyph-name="zero" unicode="0" horiz-adv-x="589" 
d="M294 -8q-84 0 -140 47.5t-80 122t-24 173.5t24 174t80 122.5t140 47.5t140.5 -47.5t80.5 -122.5t24 -174q0 -152 -60.5 -247.5t-184.5 -95.5zM294 32q70 0 117 41.5t66.5 107.5t19.5 154t-19.5 154t-66.5 107.5t-117 41.5q-103 0 -153 -84t-50 -219t50 -219t153 -84z" />
    <glyph glyph-name="one" unicode="1" horiz-adv-x="294" 
d="M171 672h42v-672h-42v622l-98 -69l-22 36z" />
    <glyph glyph-name="two" unicode="2" horiz-adv-x="617" 
d="M92 0l-8 36q6 5 66 57.5t104 95.5t99.5 102t86.5 113t31 94q0 58 -46 99t-113 41q-115 0 -185 -133l-32 24q11 21 24.5 40.5t40 47.5t67 45t88.5 17q87 0 143 -54t56 -125q0 -39 -22.5 -86.5t-54.5 -89t-77 -88t-81 -79t-76.5 -67.5t-53.5 -48h388v-42h-445z" />
    <glyph glyph-name="three" unicode="3" horiz-adv-x="521" 
d="M274 -8q-74 0 -135 40t-89 87l33 26q23 -41 75 -76.5t114 -35.5q68 0 112 37.5t44 95.5q0 61 -51 106t-140 45h-48v36h48q89 0 140 45t51 106q0 58 -44 95.5t-112 37.5q-111 0 -189 -112l-33 26q27 47 88 87t136 40q86 0 141 -49.5t55 -124.5q0 -58 -36 -104t-90 -65
q55 -19 90.5 -64.5t35.5 -104.5q0 -75 -55 -124.5t-141 -49.5z" />
    <glyph glyph-name="four" unicode="4" horiz-adv-x="609" 
d="M529 222v-42h-93v-180h-42v180h-313v39l309 453l4 -1v1h42v-450h93zM131 222h263v387z" />
    <glyph glyph-name="five" unicode="5" horiz-adv-x="598" 
d="M294 -8q-72 0 -133 42t-80 97l39 16q12 -41 62.5 -77.5t111.5 -36.5q72 0 126.5 48t54.5 129q0 83 -54.5 135.5t-124.5 52.5q-57 0 -108.5 -20.5t-67.5 -41.5l-36 14v323h418v-42h-376v-238q24 18 70.5 32t99.5 14q90 0 155.5 -62t65.5 -166q0 -103 -65 -161t-158 -58z
" />
    <glyph glyph-name="six" unicode="6" horiz-adv-x="587" 
d="M314 444q95 0 158.5 -64t63.5 -164q0 -96 -63.5 -160t-159.5 -64q-121 0 -192 98t-71 245t71.5 245.5t191.5 98.5q75 0 136.5 -40.5t87.5 -86.5l-33 -26q0 1 -7.5 12t-24 28t-38 33t-54 27.5t-67.5 11.5q-99 0 -158.5 -87t-59.5 -216q0 -29 3 -56q17 77 74 121t142 44z
M311 32q75 0 128.5 53t53.5 131q0 81 -51.5 136t-129.5 55q-80 0 -131.5 -51t-51.5 -140q0 -77 48 -127q55 -57 134 -57z" />
    <glyph glyph-name="seven" unicode="7" horiz-adv-x="534" 
d="M81 673h412v-34l-365 -639h-47l360 631h-360v42z" />
    <glyph glyph-name="eight" unicode="8" horiz-adv-x="585" 
d="M293 -8q-101 0 -161.5 55t-60.5 136q0 60 34 106.5t94 67.5q-51 20 -79 61t-28 92q0 72 54.5 120.5t146.5 48.5q91 0 145.5 -48.5t54.5 -120.5q0 -52 -28 -92.5t-79 -60.5q61 -21 95 -67.5t34 -106.5q0 -81 -60.5 -136t-161.5 -55zM293 374q72 0 114.5 37.5t41.5 94.5
q1 56 -41.5 94t-114.5 38t-114.5 -38t-42.5 -94q0 -57 42.5 -94.5t114.5 -37.5zM294 33q80 0 127.5 43t47.5 108q0 66 -48 109.5t-128 43.5q-81 0 -129 -43.5t-48 -109.5q0 -65 48.5 -108t129.5 -43z" />
    <glyph glyph-name="nine" unicode="9" horiz-adv-x="587" 
d="M275 679q120 0 191 -98.5t71 -245.5q0 -146 -71 -244.5t-191 -98.5q-75 0 -136.5 40t-88.5 87l34 26q0 -1 7.5 -12t24 -28t38 -33t54 -27.5t67.5 -11.5q99 0 158 87t59 216q0 29 -3 56q-17 -78 -73.5 -122t-141.5 -44q-95 0 -158.5 64.5t-63.5 164.5q0 96 63.5 160
t159.5 64zM459 455q0 69 -42 119q-56 64 -141 64q-74 0 -127.5 -52.5t-53.5 -130.5q0 -81 51 -136t129 -55q81 0 132.5 51t51.5 140z" />
    <glyph glyph-name="colon" unicode=":" horiz-adv-x="207" 
d="M81 341v173h45v-173h-45zM81 0v182h45v-182h-45z" />
    <glyph glyph-name="semicolon" unicode=";" horiz-adv-x="276" 
d="M146 334v174h46v-174h-46zM94 -58l43 185h57l-58 -185h-42z" />
    <glyph glyph-name="less" unicode="&#x3c;" horiz-adv-x="453" 
d="M372 148l-322 172v32l322 172v-40l-278 -148l278 -148v-40z" />
    <glyph glyph-name="equal" unicode="=" horiz-adv-x="472" 
d="M81 389v37h310v-37h-310zM81 245v37h310v-37h-310z" />
    <glyph glyph-name="greater" unicode="&#x3e;" horiz-adv-x="453" 
d="M81 148v40l278 148l-278 148v40l322 -172v-32z" />
    <glyph glyph-name="question" unicode="?" horiz-adv-x="473" 
d="M177 191v40q0 47 19 84.5t46 62t54 46t46 49.5t19 60q0 43 -34.5 74t-87.5 31q-48 0 -90 -23.5t-61 -46.5l-18 -24l-30 27q3 4 8.5 11.5t24.5 26t40.5 33t55.5 26t70 11.5q45 0 79 -16t51.5 -40t25.5 -46.5t8 -42.5q0 -36 -19 -67.5t-46 -55.5t-54 -48.5t-46 -57.5
t-19 -71v-43h-42zM177 0v113h42v-113h-42z" />
    <glyph glyph-name="at" unicode="@" horiz-adv-x="802" 
d="M400 686q76 0 143.5 -31.5t112 -81.5t70 -110.5t25.5 -120.5q0 -69 -36.5 -129t-105.5 -60q-37 0 -65.5 24t-42.5 63q-47 -76 -125 -76q-65 0 -107 54.5t-42 122.5q0 66 44.5 116.5t104.5 50.5q37 0 70.5 -20.5t55.5 -55.5l15 71l36 -9q-18 -91 -24 -153q0 -10 -2 -26v-8
q0 -48 23 -82t60 -34q44 0 73.5 43t29.5 108q0 121 -95.5 213.5t-217.5 92.5q-89 0 -162.5 -46t-111.5 -114t-38 -139q0 -76 28.5 -139.5t74 -103t99.5 -61.5t109 -22q49 0 89.5 13.5t56.5 27.5l16 14l26 -28q-2 -3 -5.5 -7t-19 -15.5t-34.5 -20t-52.5 -15.5t-72.5 -7
q-62 0 -123.5 23.5t-113.5 67t-84 114.5t-32 157q0 79 41.5 155.5t124 130t184.5 53.5zM376 202q47 0 80 39.5t33 94.5q0 56 -33 94.5t-80 38.5q-46 0 -78.5 -38.5t-32.5 -94.5q0 -55 32.5 -94.5t78.5 -39.5z" />
    <glyph glyph-name="A" unicode="A" horiz-adv-x="688" 
d="M604 0l-96 229h-329l-96 -229h-43l283 672h41l284 -672h-44zM196 271h295l-147 352z" />
    <glyph glyph-name="B" unicode="B" horiz-adv-x="615" 
d="M81 0v672h223q110 0 175.5 -51t65.5 -128q0 -52 -33.5 -94t-94.5 -63q61 -20 94.5 -62.5t33.5 -95.5q0 -76 -65.5 -127t-175.5 -51h-223zM123 355h181q90 0 143 39.5t53 98.5q0 60 -53 99.5t-143 39.5l-181 -1v-276zM123 41h181q90 0 143 39.5t53 98.5t-53 98.5
t-143 39.5h-181v-276z" />
    <glyph glyph-name="C" unicode="C" horiz-adv-x="705" 
d="M370 -8q-146 0 -233 98.5t-87 244.5q0 147 87 245.5t233 98.5q100 0 173 -47t112 -129l-41 -22q-33 73 -96 115t-148 42q-124 0 -198.5 -86.5t-74.5 -216.5t74.5 -216.5t198.5 -86.5q85 0 148.5 42.5t95.5 115.5l41 -23q-39 -81 -112 -128t-173 -47z" />
    <glyph glyph-name="D" unicode="D" horiz-adv-x="641" 
d="M81 0v672h141q169 0 269 -96t100 -240q0 -143 -100.5 -239.5t-268.5 -96.5h-141zM123 41h99q147 0 235 84t88 211t-88 211t-235 84h-99v-590z" />
    <glyph glyph-name="E" unicode="E" horiz-adv-x="586" 
d="M505 630h-382v-265h217v-42h-217v-281h382v-42h-424v672h424v-42z" />
    <glyph glyph-name="F" unicode="F" horiz-adv-x="502" 
d="M442 630h-319v-268h217v-42h-217v-320h-42v672h361v-42z" />
    <glyph glyph-name="G" unicode="G" horiz-adv-x="767" 
d="M371 -8q-146 0 -233.5 98.5t-87.5 244.5q0 147 87.5 245.5t233.5 98.5q100 0 173 -47t112 -129l-41 -22q-33 73 -96 115t-148 42q-124 0 -198.5 -86.5t-74.5 -216.5t74.5 -216.5t198.5 -86.5q115 0 188 76t83 192h-233v40h277v-340h-40v159q-37 -77 -108 -122t-167 -45z
" />
    <glyph glyph-name="H" unicode="H" horiz-adv-x="608" 
d="M486 672h42v-672h-42v305h-363v-305h-42v672h42v-325h363v325z" />
    <glyph glyph-name="I" unicode="I" horiz-adv-x="203" 
d="M81 0v672h42v-672h-42z" />
    <glyph glyph-name="J" unicode="J" horiz-adv-x="456" 
d="M215 -8q-65 0 -109 41.5t-56 93.5l38 13q11 -43 44.5 -75t81.5 -32q61 0 90 35t29 85v514h42v-513q0 -70 -41.5 -116t-118.5 -46z" />
    <glyph glyph-name="K" unicode="K" horiz-adv-x="603" 
d="M523 672l-259 -315l253 -357h-51l-228 324l-115 -140v-184h-42v672h42v-425l347 425h53z" />
    <glyph glyph-name="L" unicode="L" horiz-adv-x="523" 
d="M123 42h319v-42h-361v672h42v-630z" />
    <glyph glyph-name="M" unicode="M" horiz-adv-x="861" 
d="M820 0h-42l-146 594l-185 -594h-34l-184 592l-147 -592h-42l164 672h40l186 -591l186 591h40z" />
    <glyph glyph-name="N" unicode="N" horiz-adv-x="658" 
d="M535 672h42v-672h-43l-411 610v-610h-42v672h43l411 -610v610z" />
    <glyph glyph-name="O" unicode="O" horiz-adv-x="739" 
d="M369 -8q-146 0 -232.5 98t-86.5 245t86.5 245.5t232.5 98.5t232.5 -98.5t86.5 -245.5t-86.5 -245t-232.5 -98zM369 32q125 0 200.5 86.5t75.5 216.5t-75.5 216.5t-200.5 86.5q-124 0 -199 -86.5t-75 -216.5t75 -216.5t199 -86.5z" />
    <glyph glyph-name="P" unicode="P" horiz-adv-x="605" 
d="M81 0v672h223q110 0 175.5 -58t65.5 -145t-65.5 -145.5t-175.5 -58.5h-181v-265h-42zM123 306h181q89 0 142.5 46.5t53.5 116.5q0 69 -53.5 115.5t-142.5 46.5h-181v-325z" />
    <glyph glyph-name="Q" unicode="Q" horiz-adv-x="748" 
d="M670 -11l-90 78q-85 -75 -209 -75q-147 0 -234 98t-87 245t87 245t234 98t234 -98t87 -245q0 -142 -83 -239l89 -76zM371 32q101 0 174 65l-85 73l27 31l87 -75q70 84 70 209q0 130 -74.5 216t-198.5 86q-125 0 -199.5 -86t-74.5 -216t74.5 -216.5t199.5 -86.5z" />
    <glyph glyph-name="R" unicode="R" horiz-adv-x="615" 
d="M81 0v672h223q110 0 175.5 -58t65.5 -145q0 -69 -41.5 -120.5t-116.5 -71.5l158 -277h-46l-153 268l-45 -3h-178v-265h-42zM123 306h181q89 0 142.5 46.5t53.5 116.5q0 69 -53.5 115.5t-142.5 46.5h-181v-325z" />
    <glyph glyph-name="S" unicode="S" horiz-adv-x="526" 
d="M271 -8q-64 0 -124 30t-93 66l29 29q28 -30 79 -57t109 -27q76 0 119 33.5t43 92.5q0 36 -21 64.5t-54.5 47t-74.5 35t-81.5 34.5t-74 39.5t-54.5 55t-21 77.5q0 70 51.5 118.5t152.5 48.5q63 0 123 -30t94 -66l-30 -29q-28 30 -79.5 57t-107.5 27q-76 0 -119 -33.5
t-43 -92.5q0 -42 28 -74t70.5 -50t91.5 -39.5t91.5 -42.5t70.5 -59t28 -88q0 -69 -51.5 -118t-151.5 -49z" />
    <glyph glyph-name="T" unicode="T" horiz-adv-x="653" 
d="M603 672v-42h-255v-630h-42v630h-256v42h553z" />
    <glyph glyph-name="U" unicode="U" horiz-adv-x="688" 
d="M344 -8q-112 0 -187.5 70.5t-75.5 190.5v419h42v-419q0 -100 63 -160t158 -60t158.5 60t63.5 160v419h42v-419q0 -120 -75.5 -190.5t-188.5 -70.5z" />
    <glyph glyph-name="V" unicode="V" horiz-adv-x="672" 
d="M589 672h43l-275 -672h-42l-275 672h43l253 -620z" />
    <glyph glyph-name="W" unicode="W" horiz-adv-x="1097" 
d="M1014 672h43l-244 -672h-42l-222 615l-223 -615h-42l-244 672h43l222 -611l223 611h41l223 -611z" />
    <glyph glyph-name="X" unicode="X" horiz-adv-x="664" 
d="M583 0h-48l-203 303l-203 -303h-48l227 339l-223 333h48l199 -297l199 297h48l-223 -333z" />
    <glyph glyph-name="Y" unicode="Y" horiz-adv-x="572" 
d="M532 672l-225 -337v-335h-42v336l-225 336h50l196 -297l196 297h50z" />
    <glyph glyph-name="Z" unicode="Z" horiz-adv-x="614" 
d="M533 672v-30l-403 -603h403v-39h-452v31l403 602h-403v39h452z" />
    <glyph glyph-name="bracketleft" unicode="[" horiz-adv-x="238" 
d="M224 752h-103v-834h103v-37h-143v909h143v-38z" />
    <glyph glyph-name="backslash" unicode="\" horiz-adv-x="450" 
d="M365 0l-325 673h45l325 -673h-45z" />
    <glyph glyph-name="bracketright" unicode="]" horiz-adv-x="238" 
d="M158 790v-909h-144v37h104v834h-104v38h144z" />
    <glyph glyph-name="asciicircum" unicode="^" horiz-adv-x="352" 
d="M50 461l114 210h25l113 -210h-43l-83 160l-83 -160h-43z" />
    <glyph glyph-name="underscore" unicode="_" horiz-adv-x="577" 
d="M50 -40v40h477v-40h-477z" />
    <glyph glyph-name="a" unicode="a" 
d="M525 500h42v-500h-42v111q-35 -55 -92.5 -87t-124.5 -32q-107 0 -182.5 75.5t-75.5 182.5t75.5 182.5t182.5 75.5q67 0 124.5 -32t92.5 -86v110zM309 33q89 0 152.5 63.5t63.5 153.5t-63.5 153.5t-152.5 63.5q-90 0 -153.5 -63.5t-63.5 -153.5t63.5 -153.5t153.5 -63.5z
" />
    <glyph glyph-name="b" unicode="b" 
d="M340 508q107 0 182.5 -75.5t75.5 -182.5t-75.5 -182.5t-182.5 -75.5q-67 0 -124.5 32t-92.5 87v-111h-42v744h42v-354q35 54 92.5 86t124.5 32zM339 33q90 0 153 63.5t63 153.5t-63 153.5t-153 63.5q-89 0 -152.5 -63.5t-63.5 -153.5t63.5 -153.5t152.5 -63.5z" />
    <glyph glyph-name="c" unicode="c" horiz-adv-x="576" 
d="M308 -8q-107 0 -182.5 75.5t-75.5 182.5t75.5 182.5t182.5 75.5q68 0 125.5 -32.5t92.5 -87.5l-38 -18q-30 45 -77.5 71t-102.5 26q-90 0 -153 -63.5t-63 -153.5t63 -153.5t153 -63.5q55 0 102.5 26t77.5 71l38 -18q-35 -55 -92.5 -87.5t-125.5 -32.5z" />
    <glyph glyph-name="d" unicode="d" 
d="M525 744h42v-744h-42v111q-35 -55 -92.5 -87t-124.5 -32q-107 0 -182.5 75.5t-75.5 182.5t75.5 182.5t182.5 75.5q67 0 124.5 -32t92.5 -86v354zM309 33q89 0 152.5 63.5t63.5 153.5t-63.5 153.5t-152.5 63.5q-91 0 -154 -63.5t-63 -153.5t63 -153.5t154 -63.5z" />
    <glyph glyph-name="e" unicode="e" horiz-adv-x="615" 
d="M308 37q72 0 129 40.5t79 102.5l37 -14q-26 -71 -92.5 -121t-152.5 -49q-87 0 -157.5 55t-92.5 139q-8 32 -8 63q0 108 75 183t183 76q96 -1 168 -63t86 -155q0 -2 0.5 -7t1.5 -7l-464 -83q18 -70 76.5 -115.5t131.5 -44.5zM306 472q-89 -1 -151 -62.5t-63 -149.5
q0 -4 0.5 -12t0.5 -13l423 75q-19 71 -77.5 116.5t-132.5 45.5z" />
    <glyph glyph-name="f" unicode="f" horiz-adv-x="288" 
d="M243 501v-37h-104v-464h-40l1 464h-60v37h60v146q0 58 18.5 81t54.5 23q15 0 30 -2.5t23 -4.5l8 -3l-10 -33q-22 5 -44 5q-25 0 -33 -17t-8 -67v-128h104z" />
    <glyph glyph-name="g" unicode="g" 
d="M525 498h42v-455q-1 -108 -77.5 -182.5t-180.5 -74.5q-86 0 -152.5 48.5t-91.5 118.5l37 17q22 -62 78.5 -103t128.5 -41q89 0 152.5 64t64.5 153h-1v65q-35 -54 -92.5 -86t-124.5 -32q-107 0 -182.5 75.5t-75.5 182.5t75.5 182.5t182.5 75.5q67 0 124.5 -32t92.5 -86
v110zM309 30q89 0 152.5 63.5t63.5 154.5q0 90 -63.5 153.5t-152.5 63.5q-90 0 -153 -63t-63 -154t63 -154.5t153 -63.5z" />
    <glyph glyph-name="h" unicode="h" horiz-adv-x="568" 
d="M293 508q84 0 144 -61.5t60 -147.5v-299h-42v299q0 70 -48.5 119.5t-117.5 49.5t-117.5 -49t-48.5 -119v-300h-42v744h42v-330q27 43 72 68.5t98 25.5z" />
    <glyph glyph-name="i" unicode="i" horiz-adv-x="219" 
d="M109 656q-11 0 -19.5 8.5t-8.5 20.5t8.5 20.5t19.5 8.5q12 0 20.5 -8.5t8.5 -20.5t-8.5 -20.5t-20.5 -8.5zM88 0v500h42v-500h-42z" />
    <glyph glyph-name="j" unicode="j" horiz-adv-x="301" 
d="M192 656q-12 0 -20.5 8.5t-8.5 20.5t8.5 20.5t20.5 8.5t20.5 -8.5t8.5 -20.5t-8.5 -20.5t-20.5 -8.5zM90 -212q-33 0 -61.5 12.5t-39.5 22t-13 13.5l23 30q36 -36 91 -36q42 0 61.5 40.5t19.5 98.5v531h42v-531q0 -78 -31 -129.5t-92 -51.5z" />
    <glyph glyph-name="k" unicode="k" horiz-adv-x="421" 
d="M386 500l-184 -219l184 -281h-48l-163 249l-52 -61v-187h-42v744h42v-498l212 253h51z" />
    <glyph glyph-name="l" unicode="l" horiz-adv-x="203" 
d="M81 0v744h42v-744h-42z" />
    <glyph glyph-name="m" unicode="m" horiz-adv-x="943" 
d="M667 508q85 0 144.5 -60.5t59.5 -146.5v-301h-42v300q0 71 -48 119.5t-118 48.5q-69 0 -117.5 -49t-48.5 -119v-300h-42v300q0 70 -48.5 119t-117.5 49t-117.5 -49t-48.5 -119v-300h-42v500h42v-85q27 43 72.5 68t97.5 25q61 0 111 -33t75 -87q24 54 74.5 87t113.5 33z
" />
    <glyph glyph-name="n" unicode="n" horiz-adv-x="568" 
d="M293 508q85 0 144.5 -60.5t59.5 -146.5v-301h-42v300q0 70 -48.5 119t-117.5 49t-117.5 -49t-48.5 -119v-300h-42v500h42v-85q27 43 72.5 68t97.5 25z" />
    <glyph glyph-name="o" unicode="o" horiz-adv-x="616" 
d="M308 -8q-107 0 -182.5 75.5t-75.5 182.5t75.5 182.5t182.5 75.5t182.5 -75.5t75.5 -182.5q0 -106 -76 -182t-182 -76zM309 33q89 0 152.5 63.5t63.5 153.5t-63.5 154t-152.5 64q-90 0 -153 -64t-63 -154t63 -153.5t153 -63.5z" />
    <glyph glyph-name="p" unicode="p" 
d="M340 510q107 0 182.5 -75.5t75.5 -182.5t-75.5 -182.5t-182.5 -75.5q-67 0 -124.5 32t-92.5 87v-355h-42v744h42v-110q35 54 92.5 86t124.5 32zM339 35q90 0 153.5 63t63.5 154q0 90 -63.5 154t-153.5 64q-89 0 -152.5 -64t-63.5 -154t63.5 -153.5t152.5 -63.5z" />
    <glyph glyph-name="q" unicode="q" 
d="M525 502h42v-744h-42v354q-35 -54 -92.5 -86t-124.5 -32q-107 0 -182.5 75.5t-75.5 182.5t75.5 182.5t182.5 75.5q67 0 124.5 -32t92.5 -87v111zM309 35q89 0 152.5 63.5t63.5 153.5t-63.5 153.5t-152.5 63.5q-91 0 -154 -63.5t-63 -153.5q0 -91 63 -154t154 -63z" />
    <glyph glyph-name="r" unicode="r" horiz-adv-x="420" 
d="M293 508q57 0 107 -31l-17 -40q-46 31 -94 31q-70 0 -118 -48.5t-48 -119.5v-300h-42v500h42v-85q27 43 72.5 68t97.5 25z" />
    <glyph glyph-name="s" unicode="s" horiz-adv-x="453" 
d="M234 -8q-50 0 -94.5 18.5t-63.5 37.5l-20 18l33 27q7 -7 19.5 -17t50.5 -27t75 -17q62 0 99.5 25t37.5 71q0 32 -34 54.5t-82 36.5t-96.5 30.5t-82.5 47t-34 74.5q0 60 43.5 98.5t133.5 38.5q32 0 62 -7.5t50.5 -18t36 -21.5t22.5 -19l8 -7l-33 -28q-7 7 -19.5 17
t-50.5 27t-76 17q-61 0 -99 -25t-38 -71q0 -32 34 -54t82.5 -36.5t97 -31t82.5 -47t34 -74.5q0 -60 -43.5 -98.5t-134.5 -38.5z" />
    <glyph glyph-name="t" unicode="t" horiz-adv-x="429" 
d="M365 96l24 -31q-2 -3 -5.5 -8t-16 -17.5t-26.5 -22t-36 -17.5t-45 -8q-61 0 -103.5 38t-42.5 108v323h-89v40h89v155l42 11v-166h162v-40h-162v-318q0 -51 33 -81.5t75 -30.5q26 0 51.5 16t37.5 31t12 18z" />
    <glyph glyph-name="u" unicode="u" horiz-adv-x="568" 
d="M446 500h42v-500h-42v85q-27 -43 -72.5 -68t-97.5 -25q-85 0 -145 60.5t-60 146.5v301h43v-300q0 -70 48.5 -118.5t117.5 -48.5t117.5 48.5t48.5 118.5v300z" />
    <glyph glyph-name="v" unicode="v" horiz-adv-x="468" 
d="M391 500h42l-178 -500h-42l-178 500h42l157 -441z" />
    <glyph glyph-name="w" unicode="w" horiz-adv-x="823" 
d="M745 500h42l-178 -500h-42l-156 443l-156 -443h-42l-178 500h42l157 -441l157 441h40l157 -441z" />
    <glyph glyph-name="x" unicode="x" horiz-adv-x="485" 
d="M450 0h-50l-157 216l-158 -216h-50l183 251l-182 249h50l157 -215l156 215h50l-181 -249z" />
    <glyph glyph-name="y" unicode="y" horiz-adv-x="468" 
d="M391 500h42l-278 -721h-42l110 286l-188 435h42l166 -384z" />
    <glyph glyph-name="z" unicode="z" horiz-adv-x="515" 
d="M465 500v-33l-358 -426h358v-41h-415v33l358 426h-358v41h415z" />
    <glyph glyph-name="braceleft" unicode="{" horiz-adv-x="319" 
d="M305 -119q-74 0 -110 28.5t-36 93.5v192q0 67 -23 94.5t-86 27.5v38q63 0 86 26.5t23 95.5v191q0 64 36.5 93t109.5 29v-43q-59 0 -81.5 -17t-22.5 -65v-202q0 -100 -63 -127q63 -30 63 -128v-202q0 -49 22.5 -66t81.5 -17v-42z" />
    <glyph glyph-name="bar" unicode="|" horiz-adv-x="362" 
d="M161 -119v909h40v-909h-40z" />
    <glyph glyph-name="braceright" unicode="}" horiz-adv-x="319" 
d="M14 -119v43q58 0 80.5 17t22.5 65v203q0 98 64 127q-64 29 -64 127v203q0 48 -22.5 65t-80.5 17v42q73 0 109.5 -28.5t36.5 -92.5v-192q0 -68 23.5 -95t85.5 -27v-38q-62 0 -85.5 -27t-23.5 -95v-192q0 -64 -36.5 -93t-109.5 -29z" />
    <glyph glyph-name="asciitilde" unicode="~" horiz-adv-x="466" 
d="M307 572q-29 0 -56.5 17t-50.5 34t-40 17q-21 0 -39.5 -15t-26.5 -30l-8 -15l-36 16q2 3 5 9t13.5 20t22.5 25t30.5 20t37.5 9q29 0 75 -34t69 -34q20 0 40 15.5t30 30.5l10 15l33 -20q-2 -3 -5 -8.5t-14 -19.5t-23 -24.5t-30.5 -19t-36.5 -8.5z" />
    <glyph glyph-name="periodcentered" unicode="&#xb7;" horiz-adv-x="148" 
d="M50 0v173h48v-173h-48z" />
    <glyph glyph-name="quoteleft" unicode="&#x2018;" horiz-adv-x="199" 
d="M50 523l57 148h41l-44 -148h-54z" />
    <glyph glyph-name="quoteright" unicode="&#x2019;" horiz-adv-x="199" 
d="M50 523l45 148h53l-57 -148h-41z" />
    <glyph glyph-name="quotedblleft" unicode="&#x201c;" horiz-adv-x="318" 
d="M50 523l58 148h40l-44 -148h-54zM170 523l57 148h41l-45 -148h-53z" />
    <glyph glyph-name="quotedblright" unicode="&#x201d;" horiz-adv-x="318" 
d="M50 523l45 148h53l-57 -148h-41zM170 523l44 148h54l-57 -148h-41z" />
    <glyph glyph-name="bullet" unicode="&#x2022;" horiz-adv-x="266" 
d="M50 290v92h115v-92h-115z" />
    <glyph glyph-name="fraction" unicode="&#x2044;" horiz-adv-x="600" 
 />
    <glyph glyph-name="minus" unicode="&#x2212;" horiz-adv-x="416" 
d="M81 316v40h254v-40h-254z" />
    </font>
</defs>
</svg>
