<?xml version="1.0" standalone="no"?>
<!DOCTYPE svg PUBLIC "-//W3C//DTD SVG 1.1//EN" "http://www.w3.org/Graphics/SVG/1.1/DTD/svg11.dtd" >
<svg xmlns="http://www.w3.org/2000/svg" xmlns:xlink="http://www.w3.org/1999/xlink" version="1.1">
<metadata>
Created by FontForge 20170731 at Wed May 31 12:04:31 2017
 By Aleksey,,,
Copyright (c) 2017 by Graham Paterson. All rights reserved.
</metadata>
<defs>
<font id="Wavehaus-128Bold" horiz-adv-x="617" >
  <font-face 
    font-family="Wavehaus 128 Bold"
    font-weight="700"
    font-stretch="normal"
    units-per-em="1000"
    panose-1="0 0 8 0 0 0 0 0 0 0"
    ascent="800"
    descent="-200"
    x-height="500"
    cap-height="671"
    bbox="-52 -244 975 857"
    underline-thickness="50"
    underline-position="-200"
    unicode-range="U+0020-2212"
  />
<missing-glyph horiz-adv-x="491" 
d="M402 745v-981h-311v981h311zM327 679h-162v-32h64v-36h-65v-33h163v33h-65v36h65v32zM262 553h-98v-102h163v33h-65v69zM229 519v-35h-33v35h33zM327 424h-163v-32h65v-36h-65v-33h98v69h65v32zM327 365h-33v-64h-130v-34h163v98zM327 246h-98v-55h33v22h32v-46h-98v79
h-32v-111h163v111zM327 76h-163v-111h163v111zM294 44v-47h-98v47h98zM327 -57h-163v-33h68l-68 -46v-32h163v32h-100l68 46h32v33z" />
    <glyph glyph-name=".notdef" horiz-adv-x="491" 
d="M402 745v-981h-311v981h311zM327 679h-162v-32h64v-36h-65v-33h163v33h-65v36h65v32zM262 553h-98v-102h163v33h-65v69zM229 519v-35h-33v35h33zM327 424h-163v-32h65v-36h-65v-33h98v69h65v32zM327 365h-33v-64h-130v-34h163v98zM327 246h-98v-55h33v22h32v-46h-98v79
h-32v-111h163v111zM327 76h-163v-111h163v111zM294 44v-47h-98v47h98zM327 -57h-163v-33h68l-68 -46v-32h163v32h-100l68 46h32v33z" />
    <glyph glyph-name=".null" horiz-adv-x="0" 
 />
    <glyph glyph-name="nonmarkingreturn" horiz-adv-x="333" 
 />
    <glyph glyph-name="space" unicode=" " horiz-adv-x="223" 
 />
    <glyph glyph-name="exclam" unicode="!" horiz-adv-x="235" 
d="M70 198l-17 474h128l-16 -474h-95zM63 0v113h109v-113h-109z" />
    <glyph glyph-name="quotedbl" unicode="&#x22;" horiz-adv-x="311" 
d="M56 432l-16 189h96l-17 -189h-63zM191 432l-17 189h97l-17 -189h-63z" />
    <glyph glyph-name="numbersign" unicode="#" horiz-adv-x="687" 
d="M647 366h-133l-24 -125h119v-83h-135l-30 -158h-97l30 158h-123l-30 -158h-97l30 158h-117v83h133l23 125h-119v82h135l30 158h98l-30 -158h122l30 158h98l-30 -158h117v-82zM393 241l23 125h-122l-24 -125h123z" />
    <glyph glyph-name="dollar" unicode="$" horiz-adv-x="516" 
d="M167 476q0 -21 22 -40t55 -34t71.5 -35t71.5 -41t55 -55t22 -74q0 -61 -42 -106.5t-108 -60.5v-100h-112v102q-86 23 -162 99l80 80q8 -9 23 -22.5t50 -31.5t67 -18q39 0 64 17t25 40q0 24 -30.5 46t-74 42t-87 43.5t-74 61.5t-30.5 86q0 61 41.5 106t107.5 60v100h112
v-102q87 -23 162 -98l-79 -80q-8 9 -24 22.5t-50.5 30.5t-66.5 17q-40 0 -64.5 -16t-24.5 -39z" />
    <glyph glyph-name="percent" unicode="%" horiz-adv-x="779" 
d="M193 308q-63 0 -108 45t-45 109t45 109t108 45q64 0 109.5 -45t45.5 -109t-45.5 -109t-109.5 -45zM112 0l449 607h106l-448 -607h-107zM193 399q26 0 45 18.5t19 44.5t-19 44.5t-45 18.5t-44 -18.5t-18 -44.5t18.5 -44.5t43.5 -18.5zM586 -7q-64 0 -109 45t-45 108
q0 64 45 109t109 45t108.5 -45t44.5 -109q0 -63 -44.5 -108t-108.5 -45zM586 84q26 0 44 18t18 44t-18 44.5t-44 18.5t-44 -18.5t-18 -44.5t18 -44t44 -18z" />
    <glyph glyph-name="ampersand" unicode="&#x26;" horiz-adv-x="559" 
d="M546 419v-114h-54v-98q0 -93 -57 -154t-159 -61q-109 0 -171 55t-62 145q0 33 11 61.5t26 45.5t30.5 30t26.5 18l11 5q-3 2 -8.5 6t-19 18.5t-23.5 31.5t-18.5 46t-8.5 61q0 79 53 122.5t125 43.5q52 0 95.5 -17.5t60.5 -34.5l18 -17l-61 -98q-4 4 -11 10.5t-31 17.5
t-50 11q-37 0 -54.5 -18.5t-17.5 -46.5q0 -31 24 -50t67 -19h81v48h123v-48h54zM369 224v81h-91q-46 0 -79 -25.5t-33 -70.5q0 -40 27 -64t80 -24q44 0 70 30t26 73z" />
    <glyph glyph-name="quotesingle" unicode="'" horiz-adv-x="137" 
d="M37 432l-17 189h97l-17 -189h-63z" />
    <glyph glyph-name="parenleft" unicode="(" horiz-adv-x="378" 
d="M306 -164q-6 3 -15.5 8.5t-37 26.5t-52.5 46t-56 67.5t-53 90.5t-37 115.5t-15 141.5t14.5 142t38 117t52 91t57 69.5t52 47t38.5 27.5l14 9l65 -65q-9 -6 -24 -16.5t-53.5 -50.5t-68 -86t-53.5 -123t-24 -162t23.5 -159t56.5 -120t66 -80t56 -48l24 -14z" />
    <glyph glyph-name="parenright" unicode=")" horiz-adv-x="378" 
d="M72 -164l-68 75q9 5 24.5 14.5t54.5 46.5t68.5 81t54 119t24.5 160q0 62 -12.5 119.5t-32 100t-43 79.5t-47.5 62t-43.5 43t-31.5 26l-13 8l65 65q11 -6 29 -17.5t63.5 -55t81 -96.5t64 -142.5t28.5 -191.5t-27.5 -190.5t-66.5 -142t-78 -92.5t-66 -55z" />
    <glyph glyph-name="asterisk" unicode="*" horiz-adv-x="346" 
d="M326 528l-101 -22l69 -77l-68 -51l-53 90l-52 -90l-70 51l70 77l-101 22l26 82l95 -43l-10 104h85l-11 -104l96 43zM170 522l3 -3l3 3l-1 4h-4z" />
    <glyph glyph-name="plus" unicode="+" horiz-adv-x="561" 
d="M507 392v-112h-170v-171h-113v171h-171v112h171v171h113v-171h170z" />
    <glyph glyph-name="comma" unicode="," horiz-adv-x="212" 
d="M30 -52l47 188h107l-65 -188h-89z" />
    <glyph glyph-name="hyphen" unicode="-" horiz-adv-x="385" 
d="M345 280h-305v112h305v-112z" />
    <glyph glyph-name="period" unicode="." horiz-adv-x="209" 
d="M40 0v141h129v-141h-129z" />
    <glyph glyph-name="slash" unicode="/" horiz-adv-x="443" 
d="M30 0l262 671h121l-263 -671h-120z" />
    <glyph glyph-name="zero" unicode="0" horiz-adv-x="602" 
d="M301 -8q-128 0 -194.5 96t-66.5 247t66.5 247.5t194.5 96.5t194.5 -96.5t66.5 -247.5t-66.5 -247t-194.5 -96zM301 112q63 0 97.5 61.5t34.5 161.5q0 101 -34.5 162.5t-97.5 61.5t-98 -61.5t-35 -162.5q0 -100 35 -161.5t98 -61.5z" />
    <glyph glyph-name="one" unicode="1" horiz-adv-x="330" 
d="M148 671h128v-671h-128v524l-68 -35l-57 122z" />
    <glyph glyph-name="two" unicode="2" horiz-adv-x="569" 
d="M79 0l-2 109q1 1 28 24.5t57.5 50.5t70 66t70 74t51.5 71.5t21 61.5q0 45 -31 73.5t-79 28.5q-28 0 -53 -13.5t-42 -34t-24.5 -31.5t-12.5 -21l-76 99q3 6 20 23.5t45.5 40.5t71.5 40t88 17q100 0 162.5 -63.5t62.5 -146.5q0 -30 -11.5 -64t-32 -65.5t-43 -60.5t-49 -56
t-45 -44.5t-37 -33.5t-19.5 -17h245v-128h-436z" />
    <glyph glyph-name="three" unicode="3" horiz-adv-x="544" 
d="M280 -8q-61 0 -119.5 24.5t-86.5 47t-34 33.5l85 96q11 -18 55 -49.5t88 -31.5q46 0 76.5 23t30.5 59q0 40 -45.5 68t-131.5 28h-14v91h14q86 0 131.5 28t45.5 68q0 36 -30.5 58.5t-76.5 22.5q-34 0 -70 -20t-54 -40l-19 -20l-85 96q6 11 34 33.5t86.5 47t119.5 24.5
q58 0 103 -18t70.5 -47.5t38 -62.5t12.5 -68q0 -55 -33.5 -97.5t-56.5 -49.5q23 -7 56.5 -50t33.5 -98q0 -35 -12.5 -68t-38 -62.5t-70.5 -47.5t-103 -18z" />
    <glyph glyph-name="four" unicode="4" horiz-adv-x="606" 
d="M553 263v-128h-76v-135h-128v135h-296v105l270 431l26 -1v1h128v-408h76zM202 263h147v234z" />
    <glyph glyph-name="five" unicode="5" horiz-adv-x="605" 
d="M298 -8q-80 0 -147 41.5t-97 99.5l112 62q6 -20 43 -51.5t89 -31.5q54 0 89.5 27t35.5 73q0 48 -31.5 77.5t-78.5 29.5q-31 0 -62.5 -12.5t-46 -23t-19.5 -16.5l-107 47v357h459v-128h-331v-124q55 21 107 21q102 0 170 -64t68 -161q0 -98 -68.5 -160.5t-184.5 -62.5z
" />
    <glyph glyph-name="six" unicode="6" horiz-adv-x="609" 
d="M326 434q96 0 165 -60.5t69 -157.5q0 -73 -37 -125.5t-88.5 -75.5t-106.5 -23q-139 0 -213.5 97t-74.5 246q0 147 78 245.5t210 98.5q47 0 93 -14t76.5 -33.5t49 -35t22.5 -22.5l-86 -96q-2 3 -6.5 8.5t-19.5 19.5t-32 24.5t-43.5 19.5t-53.5 9q-61 0 -102 -49t-52 -125
q57 49 152 49zM320 112q48 0 79.5 29t31.5 75q0 50 -31 82.5t-80 32.5q-53 0 -85.5 -30.5t-32.5 -82.5q0 -69 56 -95q26 -11 62 -11zM291 113q6 -1 17 -1z" />
    <glyph glyph-name="seven" unicode="7" horiz-adv-x="544" 
d="M53 671h461v-72l-317 -599h-144l287 543h-287v128z" />
    <glyph glyph-name="eight" unicode="8" horiz-adv-x="606" 
d="M303 -8q-118 0 -189 57.5t-71 142.5q0 106 100 161q-81 50 -81 141q0 79 65 132t175 53q109 0 174.5 -53t65.5 -132q0 -89 -80 -141q100 -54 100 -161q0 -85 -70.5 -142.5t-188.5 -57.5zM302 389q46 0 73.5 24t26.5 61q1 37 -26.5 61t-73.5 24q-45 0 -72.5 -24t-27.5 -61
t27.5 -61t72.5 -24zM303 112q52 0 83 25.5t31 66.5t-31 67t-83 26q-53 0 -84 -26t-31 -67t31.5 -66.5t83.5 -25.5z" />
    <glyph glyph-name="nine" unicode="9" horiz-adv-x="609" 
d="M280 679q139 0 214 -97t75 -247q0 -146 -78.5 -244.5t-210.5 -98.5q-61 0 -119.5 24.5t-87 47t-33.5 33.5l85 96q7 -9 19 -22.5t52.5 -36t83.5 -22.5q62 0 103 48.5t52 125.5q-55 -50 -151 -50t-165 61t-69 158q0 107 71 165.5t159 58.5zM288 340q53 0 86 30.5t33 82.5
q0 64 -51 92q-28 14 -67 14q-48 0 -79.5 -29t-31.5 -75q0 -50 30.5 -82.5t79.5 -32.5zM317 558q-6 1 -17 1z" />
    <glyph glyph-name="colon" unicode=":" horiz-adv-x="236" 
d="M53 350v161h129v-161h-129zM53 0v164h129v-164h-129z" />
    <glyph glyph-name="semicolon" unicode=";" horiz-adv-x="282" 
d="M99 347v163h129v-163h-129zM57 -61l40 205h122l-73 -205h-89z" />
    <glyph glyph-name="less" unicode="&#x3c;" horiz-adv-x="465" 
d="M411 113l-371 185v76l371 185v-116l-232 -107l232 -107v-116z" />
    <glyph glyph-name="equal" unicode="=" horiz-adv-x="475" 
d="M53 382v94h368v-94h-368zM53 195v94h368v-94h-368z" />
    <glyph glyph-name="greater" unicode="&#x3e;" horiz-adv-x="465" 
d="M53 113v116l233 107l-233 107v116l372 -185v-76z" />
    <glyph glyph-name="question" unicode="?" horiz-adv-x="463" 
d="M150 204v61q0 41 22 79t48 62t48 51.5t22 49.5q0 21 -16 36.5t-43 15.5q-35 0 -68.5 -17.5t-48.5 -34.5l-16 -17l-68 92l10.5 10.5t27.5 23t43.5 29.5t56 23.5t66.5 10.5q82 0 133.5 -47t51.5 -110q0 -34 -14.5 -64.5t-35.5 -53.5t-41.5 -45.5t-35 -51t-14.5 -60.5v-43
h-128zM149 0v141h128v-141h-128z" />
    <glyph glyph-name="at" unicode="@" horiz-adv-x="861" 
d="M430 727q109 0 200.5 -56.5t141.5 -145.5t50 -187q0 -93 -51 -157t-122 -64t-120 69q-55 -53 -124 -53q-71 0 -125 58t-54 140q0 89 58.5 142.5t124.5 53.5q58 0 110 -42l10 33l96 -22q-34 -118 -34 -188q0 -43 17 -67.5t41 -24.5q30 0 52 36t22 86q0 111 -85.5 201
t-207.5 90q-124 0 -208.5 -86.5t-84.5 -191.5q0 -136 87 -221.5t197 -85.5q53 0 91 12t50 24l12 11l71 -70q-3 -3 -8 -8.5t-24 -18.5t-41 -23t-60 -18.5t-81 -8.5q-160 0 -275.5 114t-115.5 274q0 169 115 282t275 113zM409 230q28 0 53.5 26.5t29.5 60.5q0 3 0.5 9t0.5 9
q-1 40 -25 66t-59 26q-36 0 -60.5 -26.5t-24.5 -71.5q0 -40 25.5 -69.5t59.5 -29.5z" />
    <glyph glyph-name="A" unicode="A" horiz-adv-x="724" 
d="M558 0l-62 162h-269l-62 -162h-135l272 671h120l272 -671h-136zM276 290h171l-85 224z" />
    <glyph glyph-name="B" unicode="B" horiz-adv-x="600" 
d="M53 0v671h242q120 0 190.5 -57t70.5 -142t-71 -137q71 -51 71 -135q0 -85 -71 -142.5t-190 -57.5h-242zM181 386h114q60 0 96 23t36 60q0 36 -36 59t-96 23h-114v-165zM181 120h114q60 0 96 23t36 60q0 36 -36 58.5t-96 22.5h-114v-164z" />
    <glyph glyph-name="C" unicode="C" horiz-adv-x="690" 
d="M372 -8q-152 0 -242 98.5t-90 244.5q0 147 90 245.5t242 98.5q93 0 164 -39t114 -108l-116 -74q-27 46 -70 73.5t-92 27.5q-87 0 -140 -62.5t-53 -161.5q0 -98 53 -160.5t140 -62.5q50 0 93 27t69 73l116 -73q-43 -69 -114 -108t-164 -39z" />
    <glyph glyph-name="D" unicode="D" 
d="M53 0v671h179q158 0 251.5 -96t93.5 -240q0 -143 -93.5 -239t-251.5 -96h-179zM181 120h51q93 0 149.5 60t56.5 155q0 96 -56.5 156t-149.5 60h-51v-431z" />
    <glyph glyph-name="E" unicode="E" horiz-adv-x="590" 
d="M537 543h-356v-142h196v-128h-196v-145h356v-128h-484v671h484v-128z" />
    <glyph glyph-name="F" unicode="F" horiz-adv-x="487" 
d="M453 543h-272v-161h196v-128h-196v-254h-128v671h400v-128z" />
    <glyph glyph-name="G" unicode="G" horiz-adv-x="739" 
d="M373 -8q-152 0 -242.5 98t-90.5 245t90.5 245.5t242.5 98.5q93 0 163.5 -39t113.5 -108l-117 -74q-26 46 -69 73.5t-91 27.5q-88 0 -140.5 -62.5t-52.5 -161.5t52.5 -161t140.5 -62q63 0 111.5 41t66.5 106h-178v111h313v-370h-110v70q-80 -78 -203 -78z" />
    <glyph glyph-name="H" unicode="H" horiz-adv-x="610" 
d="M429 671h128v-671h-128v274h-248v-274h-128v671h128v-269h248v269z" />
    <glyph glyph-name="I" unicode="I" horiz-adv-x="235" 
d="M53 0v671h128v-671h-128z" />
    <glyph glyph-name="J" unicode="J" horiz-adv-x="486" 
d="M240 -8q-75 0 -129 46.5t-71 109.5l107 44q8 -33 29.5 -57.5t52.5 -24.5q36 0 55.5 23.5t19.5 60.5v477h128v-467q0 -96 -49.5 -154t-142.5 -58z" />
    <glyph glyph-name="K" unicode="K" horiz-adv-x="628" 
d="M575 671l-235 -294l224 -377h-138l-165 278l-80 -100v-178h-128v671h128v-308l247 308h147z" />
    <glyph glyph-name="L" unicode="L" horiz-adv-x="507" 
d="M181 128h273v-128h-401v671h128v-543z" />
    <glyph glyph-name="M" unicode="M" horiz-adv-x="841" 
d="M811 0h-128l-84 437l-145 -437h-69l-144 437l-83 -437h-128l131 671h113l146 -399l147 399h113z" />
    <glyph glyph-name="N" unicode="N" horiz-adv-x="646" 
d="M465 671h128v-671h-129l-283 462v-462h-128v671h129l283 -462v462z" />
    <glyph glyph-name="O" unicode="O" horiz-adv-x="743" 
d="M371 -8q-151 0 -241 98.5t-90 244.5q0 147 90 245.5t241 98.5q152 0 242 -98.5t90 -245.5q0 -146 -90 -244.5t-242 -98.5zM371 112q88 0 141 62t53 161t-53 161.5t-141 62.5q-86 0 -139 -62.5t-53 -161.5q0 -98 53 -160.5t139 -62.5z" />
    <glyph glyph-name="P" unicode="P" horiz-adv-x="590" 
d="M53 0v671h243q119 0 189.5 -64t70.5 -159q0 -96 -70.5 -160t-189.5 -64h-115v-224h-128zM181 345h115q59 0 95 28.5t36 74.5t-36 74.5t-95 28.5h-115v-206z" />
    <glyph glyph-name="Q" unicode="Q" horiz-adv-x="748" 
d="M623 -20l-70 63q-77 -50 -181 -50q-152 0 -242 98.5t-90 245.5q0 146 90 244.5t242 98.5q151 0 241 -98.5t90 -244.5q0 -119 -60 -207l65 -58zM372 113q30 0 75 28l-57 51l85 92l63 -57q27 49 27 110q0 98 -53 160t-140 62q-88 0 -140.5 -61.5t-52.5 -160.5
q0 -100 52.5 -162t140.5 -62z" />
    <glyph glyph-name="R" unicode="R" horiz-adv-x="600" 
d="M53 0v671h243q119 0 189.5 -64t70.5 -159q0 -64 -34 -116t-96 -80l130 -252h-129l-117 225l-31 -1h-98v-224h-128zM181 345h115q59 0 95 28.5t36 74.5t-36 74.5t-95 28.5h-115v-206z" />
    <glyph glyph-name="S" unicode="S" horiz-adv-x="560" 
d="M281 -8q-56 0 -115 29t-86.5 52.5t-38.5 36.5l87 86q10 -11 25.5 -26t54.5 -36.5t74 -21.5q45 0 72 18.5t27 49.5q0 23 -24 44.5t-60.5 38t-79 38.5t-79 45.5t-60.5 60.5t-24 82q0 82 65.5 135.5t159.5 54.5q56 0 116 -29.5t85.5 -51.5t39.5 -37l-87 -86q-84 84 -155 84
q-45 0 -72 -18.5t-27 -49.5q0 -28 34 -52.5t82 -46.5t96 -48t82 -68t34 -95q0 -81 -66 -135t-160 -54z" />
    <glyph glyph-name="T" unicode="T" horiz-adv-x="599" 
d="M559 671v-128h-196v-543h-128v543h-195v128h519z" />
    <glyph glyph-name="U" unicode="U" horiz-adv-x="652" 
d="M326 -8q-116 0 -194.5 73t-78.5 195v412h128v-412q0 -67 40.5 -107.5t104.5 -40.5t104.5 40.5t40.5 107.5v412h128v-412q0 -123 -78 -195.5t-195 -72.5z" />
    <glyph glyph-name="V" unicode="V" horiz-adv-x="674" 
d="M512 671h132l-241 -671h-132l-241 671h132l175 -487z" />
    <glyph glyph-name="W" unicode="W" horiz-adv-x="1004" 
d="M843 671h132l-203 -671h-132l-137 471l-138 -471h-131l-204 671h132l138 -463l144 463h117l145 -463z" />
    <glyph glyph-name="X" unicode="X" horiz-adv-x="711" 
d="M658 0h-146l-156 230l-157 -230h-146l230 337l-228 334h145l156 -228l155 228h146l-228 -335z" />
    <glyph glyph-name="Y" unicode="Y" horiz-adv-x="652" 
d="M622 671l-232 -341v-330h-128v330l-232 341h145l150 -221l151 221h146z" />
    <glyph glyph-name="Z" unicode="Z" horiz-adv-x="601" 
d="M547 671v-79l-321 -472h321v-120h-494v79l322 472h-322v120h494z" />
    <glyph glyph-name="bracketleft" unicode="[" horiz-adv-x="257" 
d="M254 743h-87v-816h87v-91h-201v999h201v-92z" />
    <glyph glyph-name="backslash" unicode="\" horiz-adv-x="441" 
d="M292 0l-262 671h119l263 -671h-120z" />
    <glyph glyph-name="bracketright" unicode="]" horiz-adv-x="257" 
d="M204 835v-999h-200v91h86v816h-86v92h200z" />
    <glyph glyph-name="asciicircum" unicode="^" horiz-adv-x="388" 
d="M40 415l127 256h54l127 -256l-102 1l-52 112l-53 -112z" />
    <glyph glyph-name="underscore" unicode="_" horiz-adv-x="595" 
d="M40 -113v113h515v-113h-515z" />
    <glyph glyph-name="a" unicode="a" 
d="M435 500h128v-500h-128v33q-63 -41 -139 -41q-107 0 -182.5 75.5t-75.5 182.5t75.5 182.5t182.5 75.5q76 0 139 -41v33zM300 112q56 0 93 39t37 99t-37 99t-93 39t-93 -39t-37 -99t37 -99t93 -39z" />
    <glyph glyph-name="b" unicode="b" 
d="M321 508q107 0 182.5 -75.5t75.5 -182.5t-75.5 -182.5t-182.5 -75.5q-78 0 -140 42v-34h-128v745h128v-279q62 42 140 42zM317 112q56 0 93 39t37 99t-37 99t-93 39q-57 0 -93.5 -39t-36.5 -99t36.5 -99t93.5 -39z" />
    <glyph glyph-name="c" unicode="c" horiz-adv-x="558" 
d="M296 -8q-107 0 -182.5 75.5t-75.5 182.5t75.5 182.5t182.5 75.5q71 0 131 -35.5t93 -95.5l-115 -56q-44 67 -109 67q-56 0 -93 -39t-37 -99t37 -99t93 -39q65 0 109 67l115 -56q-33 -60 -93 -95.5t-131 -35.5z" />
    <glyph glyph-name="d" unicode="d" 
d="M435 745h128v-745h-128v33q-63 -41 -139 -41q-107 0 -182.5 75.5t-75.5 182.5t75.5 182.5t182.5 75.5q76 0 139 -41v278zM300 112q56 0 93 39t37 99t-37 99t-93 39q-57 0 -93.5 -39t-36.5 -99t36.5 -99t93.5 -39z" />
    <glyph glyph-name="e" unicode="e" horiz-adv-x="595" 
d="M447 198l107 -34q-4 -10 -13.5 -26t-31.5 -42t-49.5 -46.5t-71 -36t-92.5 -15.5q-76 0 -143.5 45.5t-96.5 119.5q-18 43 -18 93q0 107 75.5 182.5t182.5 75.5q104 0 178.5 -72t78.5 -176v-13l-368 -67q14 -32 43.5 -52t67.5 -20q57 0 100 30.5t51 53.5zM170 299l-3 -16
l241 43q-18 36 -53.5 57t-74.5 17q-40 -3 -71 -31.5t-39 -69.5z" />
    <glyph glyph-name="f" unicode="f" horiz-adv-x="332" 
d="M299 503v-98h-84v-405h-128v405h-59v98h59v141q0 42 29 75t76 33q27 0 53 -4t39 -8l12 -5l-26 -97q-16 5 -29 5q-26 0 -26 -37v-103h84z" />
    <glyph glyph-name="g" unicode="g" horiz-adv-x="618" 
d="M435 500h129v-460q-2 -110 -80.5 -181t-177.5 -71q-60 0 -110.5 19t-79 46.5t-43 47.5t-19.5 33l101 53q8 -23 51 -53.5t100 -30.5q56 0 91 41t39 89q-63 -41 -140 -41q-107 0 -182.5 75.5t-75.5 182.5q0 106 76 182t182 76q76 0 139 -41v33zM301 111q56 0 93 38.5
t37 99.5q0 60 -37 98.5t-93 38.5q-57 0 -93.5 -38.5t-36.5 -98.5q0 -61 36.5 -99.5t93.5 -38.5z" />
    <glyph glyph-name="h" unicode="h" horiz-adv-x="571" 
d="M316 508q91 0 148 -65.5t57 -163.5v-279h-130v275q0 50 -29.5 83t-75.5 33t-75.5 -32.5t-29.5 -83.5v-275h-128v745h128v-296q57 59 135 59z" />
    <glyph glyph-name="i" unicode="i" horiz-adv-x="246" 
d="M123 590q-29 0 -49.5 20.5t-20.5 49.5q0 28 20.5 48.5t49.5 20.5t49.5 -20.5t20.5 -48.5q0 -29 -20.5 -49.5t-49.5 -20.5zM59 0v500h128v-500h-128z" />
    <glyph glyph-name="j" unicode="j" horiz-adv-x="267" 
d="M144 590q-29 0 -49.5 20.5t-20.5 49.5q0 28 20.5 48.5t49.5 20.5t49.5 -20t20.5 -49t-20.5 -49.5t-49.5 -20.5zM31 -211q-22 0 -43 7t-29.5 12.5t-10.5 7.5l35 114q17 -12 48 -12q24 0 36.5 21.5t12.5 53.5v507h128v-507q0 -88 -46.5 -146t-130.5 -58z" />
    <glyph glyph-name="k" unicode="k" horiz-adv-x="494" 
d="M470 501l-172 -213l172 -288h-129l-117 196l-43 -54v-142h-128v745h128v-442l159 198h130z" />
    <glyph glyph-name="l" unicode="l" horiz-adv-x="235" 
d="M53 0v745h128v-745h-128z" />
    <glyph glyph-name="m" unicode="m" horiz-adv-x="911" 
d="M656 508q91 0 148 -65t57 -164v-279h-131v276q0 50 -29 82t-75 32t-75.5 -32.5t-29.5 -82.5v-275h-130v276q0 50 -29.5 82t-75.5 32t-75.5 -32.5t-29.5 -82.5v-275h-128v500h128v-50q58 58 135 58q103 0 161 -81q60 81 179 81z" />
    <glyph glyph-name="n" unicode="n" horiz-adv-x="571" 
d="M315 508q91 0 148.5 -65t57.5 -164v-279h-131v276q0 50 -29 82t-75 32t-75.5 -32.5t-29.5 -82.5v-275h-128v500h128v-50q58 58 134 58z" />
    <glyph glyph-name="o" unicode="o" horiz-adv-x="592" 
d="M296 -8q-106 0 -182 76t-76 182t76 182t182 76q107 0 182.5 -75.5t75.5 -182.5t-75.5 -182.5t-182.5 -75.5zM301 112q56 0 93 39t37 99t-37 99t-93 39q-57 0 -93.5 -39t-36.5 -99t36.5 -99t93.5 -39z" />
    <glyph glyph-name="p" unicode="p" 
d="M321 508q107 0 182.5 -75.5t75.5 -182.5t-75.5 -182.5t-182.5 -75.5q-78 0 -140 42v-278h-128v744h128v-33q63 41 140 41zM317 113q56 0 93 38.5t37 98.5q0 61 -37 99.5t-93 38.5q-57 0 -93.5 -38.5t-36.5 -99.5q0 -60 36.5 -98.5t93.5 -38.5z" />
    <glyph glyph-name="q" unicode="q" 
d="M435 500h128v-744h-128v277q-63 -41 -139 -41q-107 0 -182.5 75.5t-75.5 182.5t75.5 182.5t182.5 75.5q76 0 139 -41v33zM300 113q56 0 93 38.5t37 98.5q0 61 -37 99.5t-93 38.5q-57 0 -93.5 -38.5t-36.5 -99.5q0 -60 36.5 -98.5t93.5 -38.5z" />
    <glyph glyph-name="r" unicode="r" horiz-adv-x="393" 
d="M316 508q36 0 69 -14l-35 -134q-38 30 -64 30q-46 0 -75.5 -32.5t-29.5 -82.5v-275h-128v500h128v-50q58 58 135 58z" />
    <glyph glyph-name="s" unicode="s" horiz-adv-x="497" 
d="M255 -8q-39 0 -76.5 10t-63 24.5t-45 29.5t-28.5 25l-10 10l81 73q7 -7 19.5 -17t50.5 -27t75 -17t58.5 11t21.5 30q0 14 -31 26t-75 24.5t-87.5 30t-74.5 51.5t-31 80q0 69 53 110.5t149 41.5q63 0 119 -25t80 -49l25 -25l-81 -73q-7 7 -19.5 17t-51 27t-75.5 17
q-36 0 -58 -11t-22 -30q0 -14 31 -26t75 -24.5t88 -30t75 -51.5t31 -80q0 -68 -53.5 -110t-149.5 -42z" />
    <glyph glyph-name="t" unicode="t" horiz-adv-x="395" 
d="M312 154l55 -102q-6 -7 -17.5 -17t-48 -26.5t-75.5 -16.5q-69 0 -110.5 36t-41.5 110v247h-61v115h61v167l128 3v-170h118v-115h-118v-208q0 -30 15 -48t37 -18q24 0 41 14.5t17 28.5z" />
    <glyph glyph-name="u" unicode="u" horiz-adv-x="571" 
d="M390 500h128v-500h-128v50q-58 -58 -134 -58q-91 0 -148.5 65t-57.5 164v279h131v-276q0 -50 29 -82t75 -32t75.5 32.5t29.5 82.5v275z" />
    <glyph glyph-name="v" unicode="v" horiz-adv-x="520" 
d="M369 500h128l-173 -500h-128l-173 500h128l109 -315z" />
    <glyph glyph-name="w" unicode="w" horiz-adv-x="850" 
d="M699 500h128l-173 -500h-128l-101 322l-101 -322h-128l-173 500h128l109 -315l109 315h112l109 -315z" />
    <glyph glyph-name="x" unicode="x" horiz-adv-x="515" 
d="M492 0h-137l-97 150l-97 -150h-138l166 256l-158 244h137l90 -138l89 138h138l-158 -245z" />
    <glyph glyph-name="y" unicode="y" horiz-adv-x="520" 
d="M369 500h128l-260 -691h-128l91 242l-177 449h128l112 -283z" />
    <glyph glyph-name="z" unicode="z" horiz-adv-x="535" 
d="M497 500v-65l-254 -315h254v-120h-459v65l254 315h-254v120h459z" />
    <glyph glyph-name="braceleft" unicode="{" horiz-adv-x="361" 
d="M358 -186q-115 0 -168 57t-53 133v183q0 42 -23 70.5t-74 28.5v99q51 0 74 28t23 71v182q0 76 53 133.5t168 57.5v-129q-49 0 -70.5 -13.5t-21.5 -46.5v-202q0 -53 -24 -87.5t-43 -43.5q9 -4 23 -17t29 -45t15 -69v-201q0 -33 21.5 -47t70.5 -14v-128z" />
    <glyph glyph-name="bar" unicode="|" horiz-adv-x="327" 
d="M107 -164v999h113v-999h-113z" />
    <glyph glyph-name="braceright" unicode="}" horiz-adv-x="361" 
d="M4 -186v129q49 0 70.5 13.5t21.5 46.5v202q0 37 15 68.5t28.5 45t22.5 17.5q-9 4 -22.5 17t-28.5 44.5t-15 69.5v201q0 33 -21.5 47t-70.5 14v128q60 0 104.5 -17.5t68.5 -46t35.5 -60.5t11.5 -66v-183q0 -42 23.5 -70.5t74.5 -28.5v-99q-51 0 -74.5 -28.5t-23.5 -70.5
v-182q0 -76 -53 -133.5t-167 -57.5z" />
    <glyph glyph-name="asciitilde" unicode="~" horiz-adv-x="590" 
d="M391 510q-44 0 -97 30.5t-84 30.5q-20 0 -39 -14.5t-27 -29.5l-9 -15l-95 48q2 5 6.5 13t20 28.5t33 36t44.5 28.5t56 13t56.5 -10t45 -21.5t39 -21.5t40.5 -10q21 0 41.5 13.5t29.5 26.5l10 14l88 -59q-2 -4 -7 -11t-21 -24.5t-33 -30.5t-44 -24t-54 -11z" />
    <glyph glyph-name="periodcentered" unicode="&#xb7;" horiz-adv-x="209" 
d="M40 0v162h129v-162h-129z" />
    <glyph glyph-name="quoteleft" unicode="&#x2018;" horiz-adv-x="233" 
d="M40 483l64 188h89l-47 -188h-106z" />
    <glyph glyph-name="quoteright" unicode="&#x2019;" horiz-adv-x="233" 
d="M40 483l47 188h106l-64 -188h-89z" />
    <glyph glyph-name="quotedblleft" unicode="&#x201c;" horiz-adv-x="393" 
d="M40 483l65 188h89l-48 -188h-106zM200 483l64 188h89l-47 -188h-106z" />
    <glyph glyph-name="quotedblright" unicode="&#x201d;" horiz-adv-x="393" 
d="M40 483l48 188h106l-65 -188h-89zM200 483l47 188h106l-65 -188h-88z" />
    <glyph glyph-name="bullet" unicode="&#x2022;" horiz-adv-x="321" 
d="M40 238v196h201v-196h-201z" />
    <glyph glyph-name="fraction" unicode="&#x2044;" horiz-adv-x="600" 
 />
    <glyph glyph-name="minus" unicode="&#x2212;" horiz-adv-x="413" 
d="M53 280v112h306v-112h-306z" />
    </font>
</defs>
</svg>
