<?xml version="1.0" standalone="no"?>
<!DOCTYPE svg PUBLIC "-//W3C//DTD SVG 1.1//EN" "http://www.w3.org/Graphics/SVG/1.1/DTD/svg11.dtd" >
<svg xmlns="http://www.w3.org/2000/svg" xmlns:xlink="http://www.w3.org/1999/xlink" version="1.1">
<metadata>
Created by FontForge 20170731 at Wed May 31 12:04:30 2017
 By Aleksey,,,
Copyright (c) 2017 by Graham Paterson. All rights reserved.
</metadata>
<defs>
<font id="Wavehaus-28Thin" horiz-adv-x="653" >
  <font-face 
    font-family="Wavehaus 28 Thin"
    font-weight="300"
    font-stretch="normal"
    units-per-em="1000"
    panose-1="0 0 4 0 0 0 0 0 0 0"
    ascent="800"
    descent="-200"
    x-height="500"
    cap-height="672"
    bbox="-20 -242 1070 783"
    underline-thickness="50"
    underline-position="-200"
    unicode-range="U+0020-2212"
  />
<missing-glyph horiz-adv-x="491" 
d="M402 745v-981h-311v981h311zM327 679h-162v-32h64v-36h-65v-33h163v33h-65v36h65v32zM262 553h-98v-102h163v33h-65v69zM229 519v-35h-33v35h33zM327 424h-163v-32h65v-36h-65v-33h98v69h65v32zM327 365h-33v-64h-130v-34h163v98zM327 246h-98v-55h33v22h32v-46h-98v79
h-32v-111h163v111zM327 76h-163v-111h163v111zM294 44v-47h-98v47h98zM327 -57h-163v-33h68l-68 -46v-32h163v32h-100l68 46h32v33z" />
    <glyph glyph-name=".notdef" horiz-adv-x="491" 
d="M402 745v-981h-311v981h311zM327 679h-162v-32h64v-36h-65v-33h163v33h-65v36h65v32zM262 553h-98v-102h163v33h-65v69zM229 519v-35h-33v35h33zM327 424h-163v-32h65v-36h-65v-33h98v69h65v32zM327 365h-33v-64h-130v-34h163v98zM327 246h-98v-55h33v22h32v-46h-98v79
h-32v-111h163v111zM327 76h-163v-111h163v111zM294 44v-47h-98v47h98zM327 -57h-163v-33h68l-68 -46v-32h163v32h-100l68 46h32v33z" />
    <glyph glyph-name=".null" horiz-adv-x="0" 
 />
    <glyph glyph-name="nonmarkingreturn" horiz-adv-x="333" 
 />
    <glyph glyph-name="space" unicode=" " horiz-adv-x="300" 
 />
    <glyph glyph-name="exclam" unicode="!" horiz-adv-x="198" 
d="M88 124l-3 548h28l-3 -548h-22zM85 0v47h28v-47h-28z" />
    <glyph glyph-name="quotedbl" unicode="&#x22;" horiz-adv-x="226" 
d="M58 507l-6 112h35l-6 -112h-23zM145 507l-6 112h35l-6 -112h-23z" />
    <glyph glyph-name="numbersign" unicode="#" horiz-adv-x="636" 
d="M584 388h-150l-33 -179h155v-28h-160l-33 -181h-29l33 181h-141l-33 -181h-29l33 181h-145v28h150l33 179h-155v28h160l33 182h29l-33 -182h141l33 182h29l-33 -182h145v-28zM372 209l33 179h-141l-33 -179h141z" />
    <glyph glyph-name="dollar" unicode="$" horiz-adv-x="476" 
d="M424 175q0 -59 -42.5 -102t-129.5 -44v-109h-28v110q-50 5 -96 28.5t-73 54.5l19 16q25 -27 71.5 -51t100.5 -24q72 0 112.5 32.5t40.5 88.5q0 35 -19 61.5t-49.5 43.5t-68 32t-74.5 31t-67.5 35t-49.5 49t-19 70q0 59 42 101t130 44v109h28v-110q49 -4 95 -27.5
t74 -54.5l-19 -17q-26 29 -72.5 52t-98.5 23q-73 0 -113.5 -32t-40.5 -88q0 -47 35.5 -80t86.5 -53t102.5 -40.5t87 -57.5t35.5 -91z" />
    <glyph glyph-name="percent" unicode="%" horiz-adv-x="736" 
d="M198 315q-60 0 -103 42.5t-43 103.5q0 60 43 102.5t103 42.5t102.5 -42.5t42.5 -102.5q0 -61 -42.5 -103.5t-102.5 -42.5zM110 0l477 598h39l-477 -598h-39zM198 343q48 0 82.5 34.5t34.5 83.5q0 48 -34.5 82.5t-82.5 34.5q-50 0 -84 -35.5t-34 -81.5q0 -48 35 -83
t83 -35zM538 -8q-60 0 -102.5 42.5t-42.5 102.5t42.5 102.5t102.5 42.5q61 0 103.5 -42.5t42.5 -102.5t-42.5 -102.5t-103.5 -42.5zM538 22q47 0 81.5 34t34.5 81q0 49 -33.5 82t-82.5 33q-48 0 -81.5 -33.5t-33.5 -81.5q0 -47 34 -81t81 -34z" />
    <glyph glyph-name="ampersand" unicode="&#x26;" horiz-adv-x="608" 
d="M581 380v-31h-73v-161q0 -81 -55.5 -138.5t-152.5 -57.5q-96 0 -160.5 47.5t-64.5 138.5q0 46 15 82.5t36.5 54.5t43 29.5t36.5 14.5l15 3q-4 1 -11.5 3.5t-26.5 13t-33 25t-26 42t-12 61.5q0 80 51 127t132 47q37 0 67.5 -9.5t48.5 -23t31 -27t18 -23.5l4 -9l-24 -18
q-1 3 -4.5 8.5t-15.5 20t-27 25t-41.5 19.5t-57.5 9q-66 0 -110 -40t-44 -104q0 -59 41 -94t114 -35h183v62h30v-62h73zM478 201v148h-181q-24 0 -53 -7.5t-62.5 -24.5t-56 -53t-22.5 -85q0 -67 51.5 -112.5t148.5 -45.5q76 0 125.5 52.5t49.5 127.5z" />
    <glyph glyph-name="quotesingle" unicode="'" horiz-adv-x="99" 
d="M39 507l-7 112h35l-6 -112h-22z" />
    <glyph glyph-name="parenleft" unicode="(" horiz-adv-x="304" 
d="M272 -112q-9 5 -24 16t-52.5 51t-66.5 87t-53 126.5t-24 167.5t22.5 166.5t55 127.5t65 85.5t55.5 52.5l22 15l16 -18q-9 -6 -23 -17t-50 -51t-64 -85.5t-50.5 -120t-22.5 -155.5t21.5 -155t52.5 -122t62 -84.5t52 -52.5l22 -17z" />
    <glyph glyph-name="parenright" unicode=")" horiz-adv-x="304" 
d="M32 -112l-16 17q9 6 23 17.5t50 51.5t64 86t50.5 120.5t22.5 155.5t-21.5 154.5t-52.5 121.5t-62 84t-52 52l-22 17l16 18q9 -5 24 -16t52.5 -50.5t66.5 -86.5t53 -126.5t24 -167.5t-22.5 -166.5t-55 -128t-65 -86t-55.5 -51.5z" />
    <glyph glyph-name="asterisk" unicode="*" horiz-adv-x="380" 
d="M348 545l-143 -41l91 -118l-22 -16l-84 122l-84 -122l-23 16l92 118l-143 41l8 27l141 -51l-5 150h28l-5 -150l140 51zM190 505l3 3l-1 3h-4l-1 -3z" />
    <glyph glyph-name="plus" unicode="+" horiz-adv-x="624" 
d="M539 350v-28h-213v-213h-28v213h-213v28h213v213h28v-213h213z" />
    <glyph glyph-name="comma" unicode="," horiz-adv-x="172" 
d="M42 -46l43 142h45l-56 -142h-32z" />
    <glyph glyph-name="hyphen" unicode="-" horiz-adv-x="350" 
d="M298 322h-246v28h246v-28z" />
    <glyph glyph-name="period" unicode="." horiz-adv-x="138" 
d="M52 0v85h34v-85h-34z" />
    <glyph glyph-name="slash" unicode="/" horiz-adv-x="458" 
d="M42 0l335 673h39l-335 -673h-39z" />
    <glyph glyph-name="zero" unicode="0" horiz-adv-x="587" 
d="M293 -8q-63 0 -110.5 26.5t-75.5 74.5t-41.5 108.5t-13.5 133.5t13.5 134t41.5 109t75.5 74.5t110.5 26.5q123 0 182.5 -95.5t59.5 -248.5q0 -99 -23.5 -173.5t-79.5 -122t-139 -47.5zM293 19q110 0 162 87t52 229t-52 229t-162 87t-162 -87.5t-52 -228.5t52 -228.5
t162 -87.5z" />
    <glyph glyph-name="one" unicode="1" horiz-adv-x="288" 
d="M175 672h28v-672h-28v638l-103 -75l-17 22z" />
    <glyph glyph-name="two" unicode="2" horiz-adv-x="625" 
d="M94 0l-9 24q10 10 57 51t84.5 75t89 86.5t86.5 95.5t60 90.5t25 82.5q0 60 -48.5 103t-118.5 43q-41 0 -75.5 -14.5t-58.5 -40.5t-35.5 -43t-24.5 -41l-25 12q79 155 219 155q85 0 140 -52.5t55 -121.5q0 -48 -30 -104.5t-82.5 -114t-98 -101t-103.5 -93.5t-72 -64h411
v-28h-446z" />
    <glyph glyph-name="three" unicode="3" horiz-adv-x="517" 
d="M273 -8q-72 0 -132 40t-89 91l24 14q26 -45 79 -81t118 -36q71 0 117.5 40t46.5 102q0 64 -52 111.5t-142 47.5h-53v28h53q90 0 142 47.5t52 111.5q0 62 -46.5 102t-117.5 40q-34 0 -67 -12t-52.5 -25t-40 -34.5t-25 -27.5t-11.5 -17l-1 -1l-24 14q29 51 88.5 91
t132.5 40q81 0 136.5 -48t55.5 -122q0 -59 -36.5 -105.5t-96.5 -67.5q60 -21 96.5 -67t36.5 -106q0 -74 -55.5 -122t-136.5 -48z" />
    <glyph glyph-name="four" unicode="4" horiz-adv-x="610" 
d="M525 215v-28h-96v-187h-28v187h-316v28l316 457h28v-457h96zM119 215h282v409z" />
    <glyph glyph-name="five" unicode="5" horiz-adv-x="597" 
d="M293 -8q-70 0 -130.5 42.5t-76.5 96.5l26 8q14 -45 66.5 -82t114.5 -37q76 0 133.5 51.5t57.5 138.5q0 88 -58 144.5t-133 56.5q-59 0 -112.5 -20.5t-70.5 -43.5l-25 9v317h411v-28h-383v-256q24 19 74 34.5t106 15.5q88 0 153.5 -62t65.5 -167q0 -104 -64.5 -161
t-154.5 -57z" />
    <glyph glyph-name="six" unicode="6" horiz-adv-x="584" 
d="M312 446q94 0 157 -65t63 -165q0 -94 -62 -159t-160 -65q-118 0 -188 98.5t-70 244.5q0 147 70 245.5t188 98.5q73 0 133 -40.5t89 -90.5l-25 -14q0 1 -8 12.5t-24.5 29t-39 34.5t-56 29t-69.5 12q-104 0 -165.5 -90.5t-61.5 -225.5q0 -42 8 -87q9 93 68 145.5t153 52.5z
M310 19q78 0 135.5 57t57.5 140q0 86 -55 144.5t-137 58.5q-85 0 -139.5 -54t-54.5 -149q0 -71 40 -122q34 -42 80 -61q36 -14 72 -14h1z" />
    <glyph glyph-name="seven" unicode="7" horiz-adv-x="532" 
d="M85 673h405v-28l-373 -645h-32l373 645h-373v28z" />
    <glyph glyph-name="eight" unicode="8" horiz-adv-x="582" 
d="M291 -8q-98 0 -157 54t-59 135q0 61 35.5 109t97.5 68q-53 19 -82 60.5t-29 93.5q0 71 52.5 119t141.5 48t141.5 -48t52.5 -119q0 -52 -29 -93.5t-82 -60.5q63 -20 98 -67.5t35 -109.5q0 -81 -59 -135t-157 -54zM292 371q76 0 121 40t44 100q1 60 -44 100t-121 40
t-121.5 -40t-45.5 -100t45 -100t122 -40zM292 20q85 0 135.5 46t50.5 115q0 70 -51 116t-136 46t-136 -46t-51 -116q0 -69 51.5 -115t136.5 -46z" />
    <glyph glyph-name="nine" unicode="9" horiz-adv-x="584" 
d="M274 679q118 0 188 -98.5t70 -245.5q0 -146 -70.5 -244.5t-187.5 -98.5q-73 0 -133 40t-89 91l25 14q0 -1 8 -12.5t24.5 -29t39 -34.5t56 -29t69.5 -12q104 0 165.5 90.5t61.5 225.5q0 42 -8 87q-9 -93 -68 -146t-153 -53t-157 65t-63 166q0 94 62 159t160 65zM467 455
q0 72 -42 125q-31 35 -69 53t-81 18h-1q-79 0 -136 -56.5t-57 -139.5q0 -86 55 -144.5t137 -58.5q85 0 139.5 54t54.5 149z" />
    <glyph glyph-name="colon" unicode=":" horiz-adv-x="202" 
d="M85 339v175h32v-175h-32zM85 0v185h32v-185h-32z" />
    <glyph glyph-name="semicolon" unicode=";" horiz-adv-x="275" 
d="M154 332v176h32v-176h-32zM100 -57l44 181h46l-56 -181h-34z" />
    <glyph glyph-name="less" unicode="&#x3c;" horiz-adv-x="451" 
d="M366 154l-314 170v24l314 170v-27l-286 -155l286 -155v-27z" />
    <glyph glyph-name="equal" unicode="=" horiz-adv-x="471" 
d="M85 390v28h301v-28h-301zM85 253v28h301v-28h-301z" />
    <glyph glyph-name="greater" unicode="&#x3e;" horiz-adv-x="451" 
d="M85 154v27l286 155l-286 155v27l314 -170v-24z" />
    <glyph glyph-name="question" unicode="?" horiz-adv-x="475" 
d="M182 189v36q0 49 19.5 87.5t47.5 63.5t56 47t47.5 50.5t19.5 63.5q0 47 -37.5 80.5t-94.5 33.5q-32 0 -61.5 -10t-49 -24.5t-35 -29t-22.5 -24.5l-7 -10l-23 16q3 4 8 11.5t24 26.5t40 33.5t55.5 26.5t70.5 12q46 0 79.5 -16t50 -40.5t23.5 -46.5t7 -40
q0 -36 -19.5 -67.5t-47.5 -56l-56 -49t-47.5 -58.5t-19.5 -73v-43h-28zM182 0v109h28v-109h-28z" />
    <glyph glyph-name="at" unicode="@" horiz-adv-x="792" 
d="M395 679q99 0 180.5 -53t123 -129t41.5 -154q0 -39 -12 -78.5t-45 -72.5t-81 -33q-37 0 -65 26t-41 67q-19 -37 -51.5 -60t-73.5 -23q-64 0 -104 54t-40 120q0 63 42 112.5t102 49.5q39 0 73.5 -24t54.5 -61l16 81l26 -7q-16 -91 -22 -152q0 -8 -2 -24v-11q0 -50 24 -85
t63 -35q46 0 76.5 44.5t30.5 111.5q0 122 -97 215t-219 93q-134 0 -224.5 -94.5t-90.5 -207.5q0 -77 29 -141.5t75 -104.5t101 -61.5t111 -21.5q48 0 89 14t57 28l17 14l19 -21q-2 -3 -5.5 -7t-18 -15t-33 -19t-51.5 -15t-71 -7q-60 0 -119.5 22.5t-111.5 64.5t-84 112.5
t-32 157.5q0 54 24 111t66 106.5t109 81t144 31.5zM371 197q49 0 83 41t34 99t-34 98.5t-83 40.5q-48 0 -82 -40.5t-34 -98.5t34 -99t82 -41z" />
    <glyph glyph-name="A" unicode="A" horiz-adv-x="682" 
d="M612 0l-102 240h-338l-102 -240h-28l285 672h28l285 -672h-28zM184 268h314l-157 371z" />
    <glyph glyph-name="B" unicode="B" horiz-adv-x="618" 
d="M85 0v672h220q109 0 173.5 -50t64.5 -125q0 -55 -36 -98t-101 -63q65 -19 101 -62.5t36 -98.5q0 -75 -64.5 -125t-173.5 -50h-220zM113 350h192q95 0 151 42t56 105t-56 105.5t-151 42.5l-192 -1v-294zM113 28h192q95 0 151 42t56 105t-56 105t-151 42h-192v-294z" />
    <glyph glyph-name="C" unicode="C" horiz-adv-x="708" 
d="M370 -8q-145 0 -231.5 98.5t-86.5 244.5q0 147 86.5 245.5t231.5 98.5q101 0 174.5 -48.5t111.5 -132.5l-29 -13q-34 77 -100.5 121.5t-156.5 44.5q-131 0 -208.5 -90.5t-77.5 -225.5t77.5 -225.5t208.5 -90.5q90 0 157 45t100 122l29 -14q-38 -83 -112 -131.5
t-174 -48.5z" />
    <glyph glyph-name="D" unicode="D" horiz-adv-x="645" 
d="M85 0v672h135q171 0 272 -96t101 -240q0 -143 -101 -239.5t-272 -96.5h-135zM113 28h107q156 0 249 88t93 220t-93 220t-249 88h-107v-616z" />
    <glyph glyph-name="E" unicode="E" horiz-adv-x="585" 
d="M500 644h-387v-285h221v-28h-221v-303h387v-28h-415v672h415v-28z" />
    <glyph glyph-name="F" unicode="F" horiz-adv-x="505" 
d="M440 644h-327v-285h221v-28h-221v-331h-28v672h355v-28z" />
    <glyph glyph-name="G" unicode="G" horiz-adv-x="771" 
d="M371 -8q-145 0 -232 98.5t-87 244.5q0 147 87 245.5t232 98.5q101 0 174.5 -48.5t111.5 -132.5l-29 -13q-34 77 -100.5 121.5t-156.5 44.5q-131 0 -208.5 -90.5t-77.5 -225.5t77.5 -225.5t208.5 -90.5q124 0 200.5 81.5t85.5 206.5h-242v28h271v-335h-29v174
q-37 -84 -111 -133t-175 -49z" />
    <glyph glyph-name="H" unicode="H" horiz-adv-x="608" 
d="M495 672h28v-672h-28v310h-382v-310h-28v672h28v-334h382v334z" />
    <glyph glyph-name="I" unicode="I" horiz-adv-x="198" 
d="M85 0v672h28v-672h-28z" />
    <glyph glyph-name="J" unicode="J" horiz-adv-x="451" 
d="M211 -8q-63 0 -105.5 41t-53.5 91l27 7q11 -44 46 -77.5t86 -33.5q65 0 96 37t31 89v520h28v-520q0 -66 -40.5 -110t-114.5 -44z" />
    <glyph glyph-name="K" unicode="K" horiz-adv-x="599" 
d="M514 672l-262 -318l257 -354h-36l-240 331l-120 -146v-185h-28v672h28v-444l364 444h37z" />
    <glyph glyph-name="L" unicode="L" horiz-adv-x="525" 
d="M113 28h327v-28h-355v672h28v-644z" />
    <glyph glyph-name="M" unicode="M" horiz-adv-x="864" 
d="M652 672l170 -672h-28l-157 619l-1 2l-190 -621h-29l-190 619l-157 -619h-28l169 672h28l193 -622l192 622h28z" />
    <glyph glyph-name="N" unicode="N" horiz-adv-x="660" 
d="M547 672h28v-672h-30l-432 631v-631h-28v672h30l432 -631v631z" />
    <glyph glyph-name="O" unicode="O" horiz-adv-x="738" 
d="M369 -8q-146 0 -231.5 98t-85.5 245t85.5 245.5t231.5 98.5t231.5 -98.5t85.5 -245.5t-85.5 -245t-231.5 -98zM369 19q131 0 210 91t79 225t-79 225t-210 91t-209.5 -90.5t-78.5 -225.5t78.5 -225.5t209.5 -90.5z" />
    <glyph glyph-name="P" unicode="P" horiz-adv-x="608" 
d="M85 0v672h220q109 0 173.5 -57t64.5 -143q0 -85 -64.5 -142.5t-173.5 -57.5h-192v-272h-28zM113 300h192q94 0 150.5 49.5t56.5 122.5t-56.5 122.5t-150.5 49.5h-192v-344z" />
    <glyph glyph-name="Q" unicode="Q" horiz-adv-x="748" 
d="M678 -9l-94 80q-84 -79 -213 -79q-146 0 -232.5 98t-86.5 245t86.5 245t232.5 98t232.5 -98t86.5 -245t-86 -244l92 -79zM371 19q113 0 190 71l-90 77l18 21l91 -78q77 89 77 225q0 135 -77.5 225t-208.5 90t-209 -90t-78 -225t78 -225.5t209 -90.5z" />
    <glyph glyph-name="R" unicode="R" horiz-adv-x="618" 
d="M85 0v672h220q109 0 173.5 -57t64.5 -143q0 -69 -43 -121t-119 -70l162 -281h-32l-159 275l-47 -3h-192v-272h-28zM113 300h192q94 0 150.5 49.5t56.5 122.5t-56.5 122.5t-150.5 49.5h-192v-344z" />
    <glyph glyph-name="S" unicode="S" horiz-adv-x="521" 
d="M269 -8q-61 0 -120 27.5t-93 65.5l20 19q29 -31 81 -57.5t112 -26.5q81 0 126.5 36t45.5 99q0 45 -29 78.5t-72 52t-93.5 40t-93.5 42t-72 59t-29 89.5q0 67 49 115t151 48q61 0 120 -27.5t93 -65.5l-20 -19q-30 32 -82.5 58t-110.5 26q-81 0 -126.5 -36t-45.5 -99
q0 -39 21.5 -69t56 -49.5t76 -36t82.5 -34t75.5 -39t56 -55.5t21.5 -78q0 -67 -49 -115t-151 -48z" />
    <glyph glyph-name="T" unicode="T" horiz-adv-x="662" 
d="M610 672v-28h-265v-644h-28v644h-265v28h558z" />
    <glyph glyph-name="U" unicode="U" horiz-adv-x="694" 
d="M347 -8q-112 0 -187 70.5t-75 189.5v420h28v-420q0 -106 67 -169t167 -63t167 63t67 169v420h28v-420q0 -119 -75 -189.5t-187 -70.5z" />
    <glyph glyph-name="V" unicode="V" horiz-adv-x="672" 
d="M602 672h28l-280 -672h-28l-280 672h28l266 -638z" />
    <glyph glyph-name="W" unicode="W" horiz-adv-x="1112" 
d="M1042 672h28l-250 -672h-28l-236 634l-236 -634h-28l-250 672h28l236 -635l236 635h28l236 -635z" />
    <glyph glyph-name="X" unicode="X" horiz-adv-x="656" 
d="M571 0h-32l-211 316l-211 -316h-32l227 340l-222 332h32l206 -308l206 308h32l-222 -332z" />
    <glyph glyph-name="Y" unicode="Y" horiz-adv-x="559" 
d="M483 672h34l-223 -336v-336h-28v336l-224 336h34l204 -309z" />
    <glyph glyph-name="Z" unicode="Z" horiz-adv-x="616" 
d="M531 672v-22l-417 -624h417v-26h-446v23l417 623h-417v26h446z" />
    <glyph glyph-name="bracketleft" unicode="[" horiz-adv-x="235" 
d="M219 754h-106v-837h106v-29h-134v895h134v-29z" />
    <glyph glyph-name="backslash" unicode="\" horiz-adv-x="452" 
d="M377 0l-335 673h33l335 -673h-33z" />
    <glyph glyph-name="bracketright" unicode="]" horiz-adv-x="235" 
d="M150 783v-895h-134v29h106v837h-106v29h134z" />
    <glyph glyph-name="asciicircum" unicode="^" horiz-adv-x="346" 
d="M52 468l111 203h21l110 -203h-33l-88 168l-88 -168h-33z" />
    <glyph glyph-name="underscore" unicode="_" horiz-adv-x="574" 
d="M52 -28v28h470v-28h-470z" />
    <glyph glyph-name="a" unicode="a" 
d="M540 500h28v-500h-28v133q-33 -64 -94.5 -102.5t-135.5 -38.5q-107 0 -182.5 75.5t-75.5 182.5t75.5 182.5t182.5 75.5q74 0 135.5 -38.5t94.5 -102.5v133zM310 20q95 0 162.5 67.5t67.5 162.5t-67.5 162.5t-162.5 67.5t-163 -67.5t-68 -162.5t68 -162.5t163 -67.5z" />
    <glyph glyph-name="b" unicode="b" 
d="M343 508q107 0 182.5 -75.5t75.5 -182.5t-75.5 -182.5t-182.5 -75.5q-74 0 -135.5 38.5t-94.5 102.5v-133h-28v744h28v-377q33 64 94.5 102.5t135.5 38.5zM343 20q95 0 162.5 67.5t67.5 162.5t-67.5 162.5t-162.5 67.5t-162.5 -67.5t-67.5 -162.5t67.5 -162.5
t162.5 -67.5z" />
    <glyph glyph-name="c" unicode="c" horiz-adv-x="579" 
d="M310 -8q-107 0 -182.5 75.5t-75.5 182.5t75.5 182.5t182.5 75.5q67 0 124.5 -32t92.5 -86l-26 -12q-31 47 -81.5 74.5t-109.5 27.5q-95 0 -162.5 -67.5t-67.5 -162.5t67.5 -162.5t162.5 -67.5q59 0 109.5 27.5t81.5 74.5l26 -12q-35 -54 -92.5 -86t-124.5 -32z" />
    <glyph glyph-name="d" unicode="d" 
d="M540 744h28v-744h-28v133q-33 -64 -94.5 -102.5t-135.5 -38.5q-107 0 -182.5 75.5t-75.5 182.5t75.5 182.5t182.5 75.5q74 0 135.5 -38.5t94.5 -102.5v377zM310 20q95 0 162.5 67.5t67.5 162.5t-67.5 162.5t-162.5 67.5q-96 0 -163.5 -67.5t-67.5 -162.5t67.5 -162.5
t163.5 -67.5z" />
    <glyph glyph-name="e" unicode="e" horiz-adv-x="618" 
d="M310 24q74 0 133.5 42.5t83.5 110.5l26 -11q-28 -76 -94.5 -123.5t-148.5 -46.5q-88 0 -159.5 56t-92.5 142q-6 28 -6 59q0 108 75 183t183 76q95 -1 166.5 -62t87.5 -152q0 -2 0.5 -6.5t1.5 -6.5l-480 -86q20 -77 83 -126.5t141 -48.5zM310 484q-96 -1 -163.5 -68
t-67.5 -162q0 -4 1 -13t1 -14l453 81q-19 76 -81.5 125.5t-142.5 50.5z" />
    <glyph glyph-name="f" unicode="f" horiz-adv-x="281" 
d="M234 501v-28h-107v-473h-26l1 473h-60v28h60v147q0 60 16.5 81.5t51.5 21.5q12 0 25.5 -2.5t20.5 -4.5l8 -2l-7 -23q-23 5 -47 5q-27 0 -35 -18.5t-8 -72.5v-132h107z" />
    <glyph glyph-name="g" unicode="g" 
d="M540 498h28v-454q0 -108 -77 -183t-181 -75q-83 0 -149.5 47.5t-93.5 122.5l26 11q24 -68 83.5 -110.5t133.5 -42.5q93 0 161.5 67t68.5 163v87q-33 -64 -94 -102.5t-136 -38.5q-107 0 -182.5 75.5t-75.5 182.5t75.5 182.5t182.5 75.5q75 0 136 -38.5t94 -102.5v133z
M310 17q95 0 162.5 67.5t67.5 163.5q0 95 -67.5 162.5t-162.5 67.5t-162.5 -67.5t-67.5 -162.5q0 -96 67.5 -163.5t162.5 -67.5z" />
    <glyph glyph-name="h" unicode="h" horiz-adv-x="568" 
d="M289 508q84 0 144 -61t60 -145v-302h-28v303q0 73 -51.5 125t-124.5 52t-124.5 -51.5t-51.5 -124.5v-304h-28v744h28v-337q27 47 74 74t102 27z" />
    <glyph glyph-name="i" unicode="i" horiz-adv-x="214" 
d="M107 667q-9 0 -15.5 6.5t-6.5 15.5t6.5 15.5t15.5 6.5t15.5 -6.5t6.5 -15.5t-6.5 -15.5t-15.5 -6.5zM93 0v500h28v-500h-28z" />
    <glyph glyph-name="j" unicode="j" horiz-adv-x="307" 
d="M200 667q-9 0 -15.5 6.5t-6.5 15.5t6.5 15.5t15.5 6.5t15.5 -6.5t6.5 -15.5t-6.5 -15.5t-15.5 -6.5zM99 -212q-68 0 -119 51l22 17q40 -40 97 -40q45 0 66 43t21 106v535h28v-535q0 -77 -28.5 -127t-86.5 -50z" />
    <glyph glyph-name="k" unicode="k" horiz-adv-x="409" 
d="M372 500l-187 -219l187 -281h-34l-172 258l-53 -62v-195h-28v744h28v-506l221 261h38z" />
    <glyph glyph-name="l" unicode="l" horiz-adv-x="198" 
d="M85 0v744h28v-744h-28z" />
    <glyph glyph-name="m" unicode="m" horiz-adv-x="948" 
d="M669 508q85 0 144.5 -59.5t59.5 -144.5v-304h-28v304q0 74 -51.5 125.5t-124.5 51.5t-124.5 -52t-51.5 -125v-304h-28v304q0 73 -51.5 125t-124.5 52t-124.5 -52t-51.5 -125v-304h-28v500h28v-93q27 46 73.5 73.5t102.5 27.5q64 0 115.5 -36t74.5 -94q23 58 74.5 94
t115.5 36z" />
    <glyph glyph-name="n" unicode="n" horiz-adv-x="568" 
d="M289 508q84 0 144 -59.5t60 -144.5v-304h-28v304q0 73 -51.5 125t-124.5 52t-124.5 -52t-51.5 -125v-304h-28v500h28v-93q27 46 73.5 73.5t102.5 27.5z" />
    <glyph glyph-name="o" unicode="o" horiz-adv-x="620" 
d="M310 -8q-107 0 -182.5 75.5t-75.5 182.5t75.5 182.5t182.5 75.5t182.5 -75.5t75.5 -182.5q0 -106 -76 -182t-182 -76zM310 20q95 0 162.5 67.5t67.5 162.5t-67.5 163t-162.5 68t-162.5 -68t-67.5 -163t67.5 -162.5t162.5 -67.5z" />
    <glyph glyph-name="p" unicode="p" 
d="M343 510q107 0 182.5 -75.5t75.5 -182.5t-75.5 -182.5t-182.5 -75.5q-74 0 -135.5 38.5t-94.5 102.5v-377h-28v744h28v-133q33 64 94.5 102.5t135.5 38.5zM343 22q95 0 163 67.5t68 162.5t-68 163t-163 68t-162.5 -68t-67.5 -163t67.5 -162.5t162.5 -67.5z" />
    <glyph glyph-name="q" unicode="q" 
d="M540 502h28v-744h-28v377q-33 -64 -94.5 -102.5t-135.5 -38.5q-107 0 -182.5 75.5t-75.5 182.5t75.5 182.5t182.5 75.5q74 0 135.5 -38.5t94.5 -102.5v133zM310 22q95 0 162.5 67.5t67.5 162.5t-67.5 162.5t-162.5 67.5q-96 0 -163.5 -67.5t-67.5 -162.5t67.5 -162.5
t163.5 -67.5z" />
    <glyph glyph-name="r" unicode="r" horiz-adv-x="424" 
d="M289 508q62 0 113 -34l-14 -24q-46 31 -99 31q-73 0 -124.5 -51.5t-51.5 -125.5v-304h-28v500h28v-93q27 46 73.5 73.5t102.5 27.5z" />
    <glyph glyph-name="s" unicode="s" horiz-adv-x="446" 
d="M230 -8q-48 0 -90.5 17.5t-61.5 34.5l-18 18l25 20q7 -7 19.5 -17.5t50.5 -27.5t75 -17q66 0 106 27.5t40 77.5q0 35 -34.5 59t-83.5 39t-98 31t-83.5 45.5t-34.5 73.5q0 59 42.5 97t131.5 38q31 0 59.5 -7t48 -17t34.5 -20.5t22 -17.5l7 -7l-25 -21q-7 7 -19.5 17.5
t-50.5 27.5t-76 17q-65 0 -105.5 -27.5t-40.5 -77.5q0 -35 34.5 -59t83.5 -38.5t98 -30.5t83.5 -46t34.5 -74q0 -59 -42 -97t-132 -38z" />
    <glyph glyph-name="t" unicode="t" horiz-adv-x="435" 
d="M374 86l19 -19q-5 -8 -15 -20.5t-43.5 -33.5t-69.5 -21q-59 0 -102 38.5t-43 107.5v335h-93v28h93v153l28 12v-165h170v-28h-170v-335q0 -55 36.5 -87.5t81.5 -32.5q28 0 55 17t40 34z" />
    <glyph glyph-name="u" unicode="u" horiz-adv-x="568" 
d="M455 500h28v-500h-28v93q-27 -46 -73.5 -73.5t-102.5 -27.5q-84 0 -144 59.5t-60 144.5v304h28v-304q0 -73 51.5 -124.5t124.5 -51.5t124.5 51.5t51.5 124.5v304z" />
    <glyph glyph-name="v" unicode="v" horiz-adv-x="460" 
d="M395 500h28l-179 -500h-28l-179 500h28l165 -461z" />
    <glyph glyph-name="w" unicode="w" horiz-adv-x="818" 
d="M753 500h28l-179 -500h-28l-165 461l-165 -461h-28l-179 500h28l165 -461l165 461h28l165 -461z" />
    <glyph glyph-name="x" unicode="x" horiz-adv-x="480" 
d="M443 500l-185 -250l185 -250h-36l-167 226l-167 -226h-36l185 250l-185 250h36l167 -226l167 226h36z" />
    <glyph glyph-name="y" unicode="y" horiz-adv-x="460" 
d="M395 500h28l-281 -726h-28l113 293l-190 433h28l176 -399z" />
    <glyph glyph-name="z" unicode="z" horiz-adv-x="512" 
d="M460 500v-28l-375 -444h375v-28h-408v28l375 444h-375v28h408z" />
    <glyph glyph-name="braceleft" unicode="{" horiz-adv-x="312" 
d="M296 -108q-67 0 -100 23.5t-33 87.5v193q0 72 -23.5 99t-87.5 27v28q64 0 87.5 27t23.5 99v192q0 63 33 87t100 24v-29q-60 0 -82.5 -17t-22.5 -68v-203q0 -98 -63 -126q63 -29 63 -127v-203q0 -51 22.5 -68.5t82.5 -17.5v-28z" />
    <glyph glyph-name="bar" unicode="|" horiz-adv-x="368" 
d="M170 -112v895h28v-895h-28z" />
    <glyph glyph-name="braceright" unicode="}" horiz-adv-x="312" 
d="M16 -108v29q60 0 82.5 17.5t22.5 68.5v203q0 98 63 126q-63 28 -63 126v204q0 50 -22.5 67.5t-82.5 17.5v28q67 0 100 -24t33 -86v-193q0 -72 23.5 -99t87.5 -27v-28q-64 0 -87.5 -27t-23.5 -99v-193q0 -63 -33 -87t-100 -24z" />
    <glyph glyph-name="asciitilde" unicode="~" horiz-adv-x="446" 
d="M293 582q-27 0 -54 17t-49 34.5t-38 17.5q-21 0 -39.5 -15t-26.5 -30l-8 -15l-26 11q2 3 4.5 8.5t12.5 18.5t20.5 23t27.5 18.5t35 8.5q27 0 71 -34.5t67 -34.5q20 0 40 15.5t30 30.5l10 16l24 -13q-2 -3 -5 -8.5t-13 -18.5t-21 -23t-28 -18.5t-34 -8.5z" />
    <glyph glyph-name="periodcentered" unicode="&#xb7;" horiz-adv-x="138" 
d="M52 0v175h34v-175h-34z" />
    <glyph glyph-name="quoteleft" unicode="&#x2018;" horiz-adv-x="193" 
d="M52 529l56 142h33l-44 -142h-45z" />
    <glyph glyph-name="quoteright" unicode="&#x2019;" horiz-adv-x="193" 
d="M52 529l44 142h45l-56 -142h-33z" />
    <glyph glyph-name="quotedblleft" unicode="&#x201c;" horiz-adv-x="306" 
d="M52 529l56 142h33l-44 -142h-45zM165 529l56 142h33l-44 -142h-45z" />
    <glyph glyph-name="quotedblright" unicode="&#x201d;" horiz-adv-x="306" 
d="M52 529l44 142h45l-56 -142h-33zM165 529l44 142h45l-56 -142h-33z" />
    <glyph glyph-name="bullet" unicode="&#x2022;" horiz-adv-x="257" 
d="M52 298v75h101v-75h-101z" />
    <glyph glyph-name="fraction" unicode="&#x2044;" horiz-adv-x="600" 
 />
    <glyph glyph-name="minus" unicode="&#x2212;" horiz-adv-x="416" 
d="M85 322v28h246v-28h-246z" />
    </font>
</defs>
</svg>
