<?xml version="1.0" standalone="no"?>
<!DOCTYPE svg PUBLIC "-//W3C//DTD SVG 1.1//EN" "http://www.w3.org/Graphics/SVG/1.1/DTD/svg11.dtd" >
<svg xmlns="http://www.w3.org/2000/svg" xmlns:xlink="http://www.w3.org/1999/xlink" version="1.1">
<metadata>
Created by FontForge 20170731 at Wed May 31 12:04:31 2017
 By Aleksey,,,
Copyright (c) 2017 by Graham Paterson. All rights reserved.
</metadata>
<defs>
<font id="Wavehaus-158ExtraBold" horiz-adv-x="606" >
  <font-face 
    font-family="Wavehaus 158 ExtraBold"
    font-weight="800"
    font-stretch="normal"
    units-per-em="1000"
    panose-1="0 0 9 0 0 0 0 0 0 0"
    ascent="800"
    descent="-200"
    x-height="500"
    cap-height="671"
    bbox="-61 -245 946 880"
    underline-thickness="50"
    underline-position="-200"
    unicode-range="U+0020-2212"
  />
<missing-glyph horiz-adv-x="491" 
d="M402 745v-981h-311v981h311zM327 679h-162v-32h64v-36h-65v-33h163v33h-65v36h65v32zM262 553h-98v-102h163v33h-65v69zM229 519v-35h-33v35h33zM327 424h-163v-32h65v-36h-65v-33h98v69h65v32zM327 365h-33v-64h-130v-34h163v98zM327 246h-98v-55h33v22h32v-46h-98v79
h-32v-111h163v111zM327 76h-163v-111h163v111zM294 44v-47h-98v47h98zM327 -57h-163v-33h68l-68 -46v-32h163v32h-100l68 46h32v33z" />
    <glyph glyph-name=".notdef" horiz-adv-x="491" 
d="M402 745v-981h-311v981h311zM327 679h-162v-32h64v-36h-65v-33h163v33h-65v36h65v32zM262 553h-98v-102h163v33h-65v69zM229 519v-35h-33v35h33zM327 424h-163v-32h65v-36h-65v-33h98v69h65v32zM327 365h-33v-64h-130v-34h163v98zM327 246h-98v-55h33v22h32v-46h-98v79
h-32v-111h163v111zM327 76h-163v-111h163v111zM294 44v-47h-98v47h98zM327 -57h-163v-33h68l-68 -46v-32h163v32h-100l68 46h32v33z" />
    <glyph glyph-name=".null" horiz-adv-x="0" 
 />
    <glyph glyph-name="nonmarkingreturn" horiz-adv-x="333" 
 />
    <glyph glyph-name="space" unicode=" " horiz-adv-x="200" 
 />
    <glyph glyph-name="exclam" unicode="!" horiz-adv-x="246" 
d="M64 220l-20 452h158l-20 -452h-118zM56 0v133h134v-133h-134z" />
    <glyph glyph-name="quotedbl" unicode="&#x22;" horiz-adv-x="336" 
d="M55 410l-19 212h115l-20 -212h-76zM205 410l-20 212h115l-20 -212h-75z" />
    <glyph glyph-name="numbersign" unicode="#" horiz-adv-x="702" 
d="M666 359h-128l-22 -109h109v-99h-128l-29 -151h-117l29 151h-118l-29 -151h-117l29 151h-109v99h128l21 109h-109v99h128l29 151h118l-29 -151h117l29 151h118l-29 -151h109v-99zM399 250l21 109h-117l-22 -109h118z" />
    <glyph glyph-name="dollar" unicode="$" horiz-adv-x="528" 
d="M194 470q0 -18 29 -36.5t70.5 -38.5t83 -44.5t70.5 -63t29 -84.5q0 -61 -41 -106.5t-103 -63.5v-100h-136v101q-41 12 -81 38t-59 46l-20 19l98 98q7 -8 19 -19.5t46 -31t65 -19.5q30 0 50 12t20 25q0 18 -29 36.5t-70 38.5t-82.5 44.5t-70.5 63t-29 84.5
q0 61 40.5 106.5t102.5 63.5v99h136v-100q41 -12 81 -38t59 -46l20 -19l-97 -98q-7 8 -19 19t-46.5 30t-65.5 19q-30 0 -50 -11t-20 -24z" />
    <glyph glyph-name="percent" unicode="%" horiz-adv-x="792" 
d="M192 306q-64 0 -110 46t-46 110q0 65 45.5 111t110.5 46t111 -46t46 -111t-46 -110.5t-111 -45.5zM113 0l440 610h126l-439 -610h-127zM192 416q19 0 33 13.5t14 32.5q0 20 -13.5 33.5t-33.5 13.5q-19 0 -32.5 -14t-13.5 -33t13.5 -32.5t32.5 -13.5zM600 -7
q-64 0 -110 45.5t-46 110.5t45.5 111t110.5 46t110.5 -46t45.5 -111t-46 -110.5t-110 -45.5zM600 103q19 0 32.5 13.5t13.5 32.5q0 20 -13.5 33.5t-32.5 13.5t-32.5 -13.5t-13.5 -33.5q0 -19 13.5 -32.5t32.5 -13.5z" />
    <glyph glyph-name="ampersand" unicode="&#x26;" horiz-adv-x="544" 
d="M535 431v-139h-48v-79q0 -97 -57 -159t-161 -62q-113 0 -174 57t-61 147q0 29 9.5 55.5t23 43.5t27 29.5t22.5 18.5l10 6q-3 2 -7.5 6.5t-16 20t-20.5 33.5t-16.5 47.5t-7.5 61.5q0 79 53.5 121t122.5 42q50 0 93.5 -15.5t62.5 -31.5l19 -15l-72 -122q-32 26 -75 26
q-48 0 -48 -41q0 -24 18.5 -37.5t53.5 -13.5h50v44h151v-44h48zM336 231v61h-64q-42 0 -64.5 -21t-22.5 -53q0 -67 79 -67q35 0 53.5 23.5t18.5 56.5z" />
    <glyph glyph-name="quotesingle" unicode="'" horiz-adv-x="148" 
d="M36 410l-20 212h116l-20 -212h-76z" />
    <glyph glyph-name="parenleft" unicode="(" horiz-adv-x="400" 
d="M316 -180q-6 3 -16 8.5t-39 27t-55.5 47t-59 69t-55.5 93t-39 119.5t-16 147t15.5 147t40 121t54.5 94.5t60 72t54.5 48.5t39.5 28l16 9l80 -79q-9 -5 -24.5 -16t-54.5 -51t-69 -86.5t-54.5 -124t-24.5 -163.5t24 -160.5t57.5 -120t67.5 -78t58 -46.5l24 -13z" />
    <glyph glyph-name="parenright" unicode=")" horiz-adv-x="400" 
d="M84 -180l-84 93q9 5 25 14t55.5 45t70 79.5t55.5 118.5t25 161q0 63 -12.5 121t-32.5 101t-44 80.5t-48.5 62t-44.5 42.5t-33 26l-12 8l80 79q6 -3 16 -9t39 -28t55.5 -48.5t59 -71.5t55.5 -95t39 -120.5t16 -147.5t-15.5 -147t-40 -120t-54.5 -92.5t-60 -69.5
t-54.5 -46.5t-39.5 -27.5z" />
    <glyph glyph-name="asterisk" unicode="*" horiz-adv-x="336" 
d="M320 523l-86 -17l60 -64l-83 -61l-43 77l-43 -77l-83 61l60 64l-86 17l32 98l80 -38l-11 88h103l-11 -88l80 38zM165 526l3 -2l3 2l-1 4h-4z" />
    <glyph glyph-name="plus" unicode="+" horiz-adv-x="542" 
d="M498 405v-138h-158v-158h-138v158h-158v138h158v158h138v-158h158z" />
    <glyph glyph-name="comma" unicode="," horiz-adv-x="224" 
d="M26 -54l49 202h125l-68 -202h-106z" />
    <glyph glyph-name="hyphen" unicode="-" horiz-adv-x="395" 
d="M359 267h-323v138h323v-138z" />
    <glyph glyph-name="period" unicode="." horiz-adv-x="230" 
d="M36 0v158h158v-158h-158z" />
    <glyph glyph-name="slash" unicode="/" horiz-adv-x="438" 
d="M26 0l241 671h145l-241 -671h-145z" />
    <glyph glyph-name="zero" unicode="0" 
d="M303 -8q-129 0 -198 96.5t-69 246.5t69 247t198 97q130 0 198.5 -96.5t68.5 -247.5q0 -150 -68.5 -246.5t-198.5 -96.5zM303 140q49 0 78.5 53.5t29.5 141.5t-29.5 142t-78.5 54t-78.5 -54t-29.5 -142t29.5 -141.5t78.5 -53.5z" />
    <glyph glyph-name="one" unicode="1" horiz-adv-x="342" 
d="M140 671h158v-671h-158v489l-57 -22l-69 152z" />
    <glyph glyph-name="two" unicode="2" horiz-adv-x="552" 
d="M74 0v134q11 9 29 24t64 57.5t81 79.5t64 79.5t29 68.5q0 40 -25.5 64t-66.5 24q-31 0 -59.5 -22t-41.5 -44l-13 -22l-91 125q4 5 11.5 12t32 26.5t49.5 34t62 26.5t72 12q105 0 169 -67t64 -154q0 -40 -20 -85.5t-48 -82t-56 -67.5t-48 -48l-20 -17h196v-158h-434z" />
    <glyph glyph-name="three" unicode="3" horiz-adv-x="552" 
d="M282 -8q-41 0 -81 10t-68.5 24.5t-51 28.5t-33.5 24l-12 10l104 121q7 -8 19.5 -19.5t46 -31t60.5 -19.5q39 0 64.5 17.5t25.5 45.5q0 33 -43.5 55.5t-127.5 22.5h-3v109h3q84 0 127.5 22.5t43.5 55.5q0 28 -25.5 45.5t-64.5 17.5q-27 0 -58.5 -17.5t-49.5 -35.5l-18 -17
l-104 121q4 4 11.5 10.5t33 23t52.5 29.5t67.5 23.5t81.5 10.5q64 0 111.5 -19.5t73 -51t37.5 -65t12 -68.5q0 -38 -19 -72.5t-39 -50.5l-19 -16q3 -2 8.5 -6.5t18.5 -18.5t23 -29t18.5 -38.5t8.5 -47.5q0 -35 -12 -68.5t-37.5 -65t-73 -51t-111.5 -19.5z" />
    <glyph glyph-name="four" unicode="4" horiz-adv-x="605" 
d="M561 278v-158h-70v-120h-158v120h-289v128l255 423h192v-393h70zM227 278h106v175z" />
    <glyph glyph-name="five" unicode="5" horiz-adv-x="607" 
d="M299 -8q-83 0 -151.5 41t-103.5 101l138 78q2 -3 5 -8t13.5 -17t23 -21.5t33 -17.5t42.5 -8q48 0 77 20t29 53q0 35 -23.5 57t-62.5 22q-13 0 -26.5 -2.5t-24 -7t-20.5 -9.5t-17 -10.5t-12.5 -10t-8.5 -6.5l-3 -3l-131 59v368h473v-158h-315v-84q43 12 85 12
q106 0 175 -64.5t69 -159.5q0 -97 -70 -160.5t-194 -63.5z" />
    <glyph glyph-name="six" unicode="6" horiz-adv-x="616" 
d="M330 431q96 0 167 -60t71 -155q0 -58 -23 -103.5t-59 -70.5t-75 -37.5t-77 -12.5q-146 0 -222 96.5t-76 246.5q0 147 81 245.5t217 98.5q64 0 125.5 -24.5t90.5 -48.5l30 -24l-104 -121q-6 8 -17.5 19.5t-48.5 31t-76 19.5q-48 0 -82.5 -36t-48.5 -94q52 30 127 30z
M323 140q39 0 62.5 21t23.5 55q0 40 -23.5 64t-62.5 24q-44 0 -70 -23.5t-26 -62.5q0 -55 49 -73l13 -3l-7 1q12 -3 26 -3l-7 1q7 -1 22 -1zM301 141q-2 0 -6 0.5t-6 0.5z" />
    <glyph glyph-name="seven" unicode="7" horiz-adv-x="547" 
d="M44 671h477v-86l-300 -585h-177l262 513h-262v158z" />
    <glyph glyph-name="eight" unicode="8" horiz-adv-x="613" 
d="M306 -8q-124 0 -198 58t-74 145q0 99 89 156q-72 53 -72 138q0 81 69 135.5t185 54.5t185 -54.5t69 -135.5q0 -84 -71 -138q91 -57 91 -156q0 -87 -74 -145t-199 -58zM305 395q37 0 59 18.5t22 49.5t-22 49.5t-59 18.5q-36 0 -58 -18.5t-22 -49.5t22 -49.5t58 -18.5z
M306 140q42 0 67.5 19.5t25.5 51.5t-25.5 52t-67.5 20t-67.5 -20t-25.5 -52t25.5 -51.5t67.5 -19.5z" />
    <glyph glyph-name="nine" unicode="9" horiz-adv-x="616" 
d="M282 679q146 0 222 -96.5t76 -247.5q0 -147 -81 -245t-217 -98q-41 0 -81 10t-68.5 24.5t-51 28.5t-33.5 24l-12 10l104 121q6 -8 17.5 -19.5t48.5 -31t76 -19.5q49 0 83.5 36t47.5 94q-52 -30 -126 -30q-96 0 -167 60t-71 155q0 58 22.5 103t58.5 70.5t75 38t77 12.5z
M293 367q44 0 70 23.5t26 62.5q0 48 -39 69q-22 9 -57 9q-39 0 -62.5 -21t-23.5 -55q0 -40 23.5 -64t62.5 -24zM334 528q-12 3 -26 3z" />
    <glyph glyph-name="colon" unicode=":" horiz-adv-x="246" 
d="M44 353v157h158v-157h-158zM44 0v158h158v-158h-158z" />
    <glyph glyph-name="semicolon" unicode=";" horiz-adv-x="284" 
d="M82 352v158h158v-158h-158zM44 -62l39 212h145l-78 -212h-106z" />
    <glyph glyph-name="less" unicode="&#x3c;" horiz-adv-x="469" 
d="M425 101l-389 189v92l389 189v-142l-216 -93l216 -93v-142z" />
    <glyph glyph-name="equal" unicode="=" horiz-adv-x="476" 
d="M44 379v114h388v-114h-388zM44 178v114h388v-114h-388z" />
    <glyph glyph-name="greater" unicode="&#x3e;" horiz-adv-x="469" 
d="M44 101v142l216 93l-216 93v142l389 -189v-92z" />
    <glyph glyph-name="question" unicode="?" horiz-adv-x="459" 
d="M140 208v69q0 35 19.5 71t43.5 60t43.5 49t19.5 41q0 13 -10 23t-28 10q-30 0 -60 -15t-45 -30l-15 -15l-82 115q4 4 11 10t29 22t44.5 28.5t56 22.5t65.5 10q82 0 137.5 -46.5t55.5 -114.5q0 -41 -20 -78.5t-43.5 -61t-43.5 -57.5t-20 -70v-43h-158zM139 0v150h158v-150
h-158z" />
    <glyph glyph-name="at" unicode="@" horiz-adv-x="882" 
d="M533 523l117 -26q-37 -114 -37 -189q0 -40 15 -61.5t34 -21.5q25 0 44.5 33.5t19.5 78.5q0 108 -82 196.5t-204 88.5q-121 0 -203.5 -84t-82.5 -187q0 -131 83.5 -215.5t190.5 -84.5q54 0 92 11.5t48 22.5l11 11l86 -85l-8.5 -8.5t-25.5 -19.5t-44 -24.5t-63.5 -19.5
t-83.5 -9q-112 0 -205.5 56.5t-146 147.5t-52.5 193q0 93 34 172t90 131t129 81.5t151 29.5q169 0 287.5 -122t118.5 -282q0 -103 -55.5 -167.5t-127.5 -64.5q-71 0 -123 65q-56 -48 -125 -48q-72 0 -130.5 59t-58.5 146q0 51 19 92t49 65t63 36.5t63 12.5q54 0 104 -35z
M420 240q23 0 46 23t27 53q0 12 1 18q-2 35 -22.5 56.5t-51.5 21.5q-33 0 -54 -22.5t-21 -63.5q0 -34 23 -60t52 -26z" />
    <glyph glyph-name="A" unicode="A" horiz-adv-x="736" 
d="M542 0l-51 139h-246l-51 -139h-168l268 671h148l268 -671h-168zM304 297h128l-64 174z" />
    <glyph glyph-name="B" unicode="B" horiz-adv-x="594" 
d="M44 0v671h248q122 0 195 -59.5t73 -147.5q0 -73 -51 -129q51 -54 51 -128q0 -88 -73 -147.5t-195 -59.5h-248zM202 397h90q50 0 80 17.5t30 45.5t-30 45.5t-80 17.5h-90v-126zM202 148h90q50 0 80 17.5t30 45.5t-30.5 45t-79.5 17h-90v-125z" />
    <glyph glyph-name="C" unicode="C" horiz-adv-x="684" 
d="M373 -8q-154 0 -245.5 98.5t-91.5 244.5q0 147 91.5 245.5t245.5 98.5q181 0 275 -137l-142 -92q-24 37 -60.5 59t-72.5 22q-74 0 -119.5 -54t-45.5 -142t45.5 -141.5t119.5 -53.5q37 0 73.5 22t59.5 58l142 -91q-94 -137 -275 -137z" />
    <glyph glyph-name="D" unicode="D" horiz-adv-x="608" 
d="M44 0v671h192q154 0 245 -96t91 -240q0 -143 -91 -239t-245 -96h-192zM202 148h34q74 0 119.5 51.5t45.5 135.5q0 85 -45.5 136.5t-119.5 51.5h-34v-375z" />
    <glyph glyph-name="E" unicode="E" horiz-adv-x="592" 
d="M548 513h-346v-99h188v-158h-188v-98h346v-158h-504v671h504v-158z" />
    <glyph glyph-name="F" unicode="F" horiz-adv-x="481" 
d="M457 513h-255v-124h188v-158h-188v-231h-158v671h413v-158z" />
    <glyph glyph-name="G" unicode="G" horiz-adv-x="730" 
d="M373 -8q-154 0 -245.5 98.5t-91.5 244.5q0 147 91.5 245.5t245.5 98.5q181 0 275 -137l-143 -92q-24 37 -60 59t-72 22q-74 0 -119.5 -54t-45.5 -142t45.5 -141.5t119.5 -53.5q45 0 85 29t61 76h-158v136h325v-381h-134v39q-77 -47 -179 -47z" />
    <glyph glyph-name="H" unicode="H" horiz-adv-x="611" 
d="M409 671h158v-671h-158v263h-207v-263h-158v671h158v-250h207v250z" />
    <glyph glyph-name="I" unicode="I" horiz-adv-x="246" 
d="M44 0v671h158v-671h-158z" />
    <glyph glyph-name="J" unicode="J" horiz-adv-x="496" 
d="M249 -8q-79 0 -136 48t-77 115l131 55q7 -29 25 -51t43 -22q26 0 42.5 19.5t16.5 51.5v464h158v-451q0 -105 -52.5 -167t-150.5 -62z" />
    <glyph glyph-name="K" unicode="K" horiz-adv-x="637" 
d="M593 671l-227 -287l214 -384h-168l-144 259l-66 -83v-176h-158v671h158v-267l211 267h180z" />
    <glyph glyph-name="L" unicode="L" horiz-adv-x="502" 
d="M202 158h256v-158h-414v671h158v-513z" />
    <glyph glyph-name="M" unicode="M" horiz-adv-x="834" 
d="M808 0h-158l-62 384l-131 -384h-81l-130 383l-62 -383h-158l120 671h138l133 -332l133 332h138z" />
    <glyph glyph-name="N" unicode="N" horiz-adv-x="642" 
d="M440 671h158v-671h-158l-238 403v-403h-158v671h158l238 -403v403z" />
    <glyph glyph-name="O" unicode="O" horiz-adv-x="744" 
d="M372 -8q-153 0 -244.5 98.5t-91.5 244.5q0 147 91.5 245.5t244.5 98.5t244.5 -98.5t91.5 -245.5q0 -146 -91.5 -244.5t-244.5 -98.5zM372 140q74 0 119.5 53.5t45.5 141.5t-45.5 142t-119.5 54t-119 -54t-45 -142t45 -141.5t119 -53.5z" />
    <glyph glyph-name="P" unicode="P" horiz-adv-x="584" 
d="M44 0v671h249q122 0 194.5 -66t72.5 -164q0 -99 -72.5 -165t-194.5 -66h-91v-210h-158zM202 358h91q49 0 79 23t30 60t-30 59.5t-79 22.5h-91v-165z" />
    <glyph glyph-name="Q" unicode="Q" horiz-adv-x="748" 
d="M607 -23l-63 58q-75 -42 -172 -42q-153 0 -244.5 98.5t-91.5 245.5q0 146 91.5 244.5t244.5 98.5t244 -98.5t91 -244.5q0 -111 -52 -195l57 -52zM372 141q8 0 22 7t19 8l-47 43l105 114l54 -51q12 34 12 75q0 88 -45.5 141.5t-119.5 53.5t-119.5 -53.5t-45.5 -141.5
t45.5 -142t119.5 -54z" />
    <glyph glyph-name="R" unicode="R" horiz-adv-x="594" 
d="M44 0v671h249q122 0 194.5 -66t72.5 -164q0 -63 -31.5 -115t-88.5 -83l120 -243h-158l-104 210h-96v-210h-158zM202 358h91q49 0 79 23t30 60t-30 59.5t-79 22.5h-91v-165z" />
    <glyph glyph-name="S" unicode="S" horiz-adv-x="572" 
d="M285 -8q-38 0 -77.5 13t-69 31t-53.5 36.5t-37 31.5l-12 13l107 107q8 -9 21 -23t50.5 -37.5t71.5 -23.5q35 0 56 13t21 35q0 20 -32 40.5t-77.5 42.5t-90.5 48.5t-77 68.5t-32 93q0 86 70.5 141.5t162.5 56.5q60 0 122.5 -31.5t94.5 -62.5l32 -31l-107 -107q-8 9 -21 23
t-50.5 37.5t-71.5 23.5q-35 0 -56 -13t-21 -35q0 -20 32 -41t77.5 -42.5t90.5 -48.5t77 -69t32 -93q0 -86 -71 -141.5t-162 -55.5z" />
    <glyph glyph-name="T" unicode="T" horiz-adv-x="580" 
d="M544 671v-158h-175v-513h-158v513h-175v158h508z" />
    <glyph glyph-name="U" unicode="U" horiz-adv-x="640" 
d="M320 -8q-118 0 -197 73.5t-79 196.5v410h158v-410q0 -55 32.5 -88.5t85.5 -33.5t85.5 33.5t32.5 88.5v410h158v-410q0 -123 -79 -196.5t-197 -73.5z" />
    <glyph glyph-name="V" unicode="V" horiz-adv-x="674" 
d="M485 671h163l-229 -671h-163l-230 671h164l148 -432z" />
    <glyph glyph-name="W" unicode="W" horiz-adv-x="972" 
d="M783 671h163l-189 -671h-163l-107 403l-108 -403h-163l-190 671h164l108 -412l117 412h143l118 -412z" />
    <glyph glyph-name="X" unicode="X" horiz-adv-x="728" 
d="M684 671l-230 -335l230 -336h-180l-140 204l-140 -204h-180l230 336l-230 335h180l140 -204l140 204h180z" />
    <glyph glyph-name="Y" unicode="Y" horiz-adv-x="680" 
d="M654 671l-235 -343v-328h-158v327l-235 344h179l134 -195l135 195h180z" />
    <glyph glyph-name="Z" unicode="Z" horiz-adv-x="596" 
d="M552 671v-96l-293 -427h293v-148h-508v96l293 427h-293v148h508z" />
    <glyph glyph-name="bracketleft" unicode="[" horiz-adv-x="264" 
d="M264 740h-81v-810h81v-110h-220v1031h220v-111z" />
    <glyph glyph-name="backslash" unicode="\" horiz-adv-x="438" 
d="M267 0l-241 671h145l241 -671h-145z" />
    <glyph glyph-name="bracketright" unicode="]" horiz-adv-x="264" 
d="M220 851v-1031h-220v110h81v810h-81v111h220z" />
    <glyph glyph-name="asciicircum" unicode="^" horiz-adv-x="400" 
d="M36 399l132 272h64l132 -272l-123 1l-41 96l-42 -96z" />
    <glyph glyph-name="underscore" unicode="_" horiz-adv-x="601" 
d="M36 -138v138h529v-138h-529z" />
    <glyph glyph-name="a" unicode="a" 
d="M404 500h158v-500h-158v18q-52 -26 -112 -26q-107 0 -182.5 75.5t-75.5 182.5t75.5 182.5t182.5 75.5q60 0 112 -26v18zM297 140q45 0 72.5 30.5t27.5 79.5q0 50 -27.5 80t-72.5 30t-72.5 -30t-27.5 -80q0 -49 27.5 -79.5t72.5 -30.5z" />
    <glyph glyph-name="b" unicode="b" 
d="M314 508q107 0 182.5 -75.5t75.5 -182.5t-75.5 -182.5t-182.5 -75.5q-60 0 -112 26v-18h-158v745h158v-263q52 26 112 26zM309 140q45 0 72.5 30.5t27.5 79.5q0 50 -27.5 80t-72.5 30t-72.5 -30t-27.5 -80q0 -49 27.5 -79.5t72.5 -30.5z" />
    <glyph glyph-name="c" unicode="c" horiz-adv-x="552" 
d="M292 -8q-107 0 -182.5 75.5t-75.5 182.5t75.5 182.5t182.5 75.5q72 0 132.5 -36.5t93.5 -98.5l-142 -69q-16 25 -39 40.5t-45 15.5q-45 0 -72.5 -30t-27.5 -80q0 -49 27.5 -79.5t72.5 -30.5q22 0 45 15.5t39 40.5l142 -69q-33 -62 -93.5 -98.5t-132.5 -36.5z" />
    <glyph glyph-name="d" unicode="d" 
d="M404 745h158v-745h-158v18q-52 -26 -112 -26q-107 0 -182.5 75.5t-75.5 182.5t75.5 182.5t182.5 75.5q60 0 112 -26v263zM297 140q45 0 72.5 30.5t27.5 79.5q0 50 -27.5 80t-72.5 30t-72.5 -30t-27.5 -80q0 -49 27.5 -79.5t72.5 -30.5z" />
    <glyph glyph-name="e" unicode="e" horiz-adv-x="588" 
d="M423 204l131 -41q-3 -7 -8.5 -18t-28 -39t-50 -50t-74.5 -40t-101 -18q-73 1 -139.5 43t-97.5 113q-21 48 -21 103q0 107 75.5 182.5t182.5 75.5q106 0 182 -75.5t76 -182.5q0 -12 -1 -14l-334 -60q28 -42 77 -42q36 0 69 15.5t47 31.5zM197 312l-4 -12l177 31
q-18 25 -45.5 37t-53.5 7q-22 -4 -42.5 -21.5t-31.5 -41.5z" />
    <glyph glyph-name="f" unicode="f" horiz-adv-x="347" 
d="M318 503v-118h-76v-385h-159v385h-59v118h59v140q0 37 33 73t82 36q32 0 61.5 -5t43.5 -9l14 -5l-31 -119q-14 5 -24 5q-20 0 -20 -21v-95h76z" />
    <glyph glyph-name="g" unicode="g" horiz-adv-x="607" 
d="M404 500h159v-461q-3 -110 -81.5 -180.5t-176.5 -70.5q-54 0 -100 14.5t-73.5 35t-47 41t-26.5 35.5l-8 14l123 65q6 -7 16.5 -17.5t45 -28t70.5 -17.5q40 0 64 25.5t33 60.5q-53 -24 -110 -24q-107 0 -182.5 75.5t-75.5 182.5q0 106 76 182t182 76q59 0 112 -25v17z
M298 139q45 0 72.5 30.5t27.5 79.5t-27.5 79.5t-72.5 30.5t-72.5 -30.5t-27.5 -79.5t27.5 -79.5t72.5 -30.5z" />
    <glyph glyph-name="h" unicode="h" horiz-adv-x="572" 
d="M324 508q93 0 149.5 -67t56.5 -169v-272h-161v267q0 43 -23 70t-61 27q-37 0 -60 -27t-23 -71v-266h-158v745h158v-286q54 49 122 49z" />
    <glyph glyph-name="i" unicode="i" horiz-adv-x="256" 
d="M128 567q-35 0 -59.5 24.5t-24.5 59.5t25 59.5t59 24.5t59 -24.5t25 -59.5t-24.5 -59.5t-59.5 -24.5zM49 0v500h158v-500h-158z" />
    <glyph glyph-name="j" unicode="j" horiz-adv-x="255" 
d="M127 567q-35 0 -59.5 24.5t-24.5 59.5t24.5 59.5t59.5 24.5t59.5 -24.5t24.5 -59.5t-24.5 -59.5t-59.5 -24.5zM11 -211q-18 0 -36 5t-27 10l-9 5l38 143q12 -4 34 -4q17 0 27 15t10 38v499h158v-499q0 -91 -52 -151.5t-143 -60.5z" />
    <glyph glyph-name="k" unicode="k" horiz-adv-x="519" 
d="M500 501l-168 -211l168 -290h-158l-101 175l-39 -49v-126h-158v745h158v-420l140 176h158z" />
    <glyph glyph-name="l" unicode="l" horiz-adv-x="246" 
d="M44 0v745h158v-745h-158z" />
    <glyph glyph-name="m" unicode="m" horiz-adv-x="900" 
d="M652 508q92 0 149 -67t57 -169v-272h-162v267q0 43 -22.5 69.5t-60.5 26.5q-37 0 -60 -26.5t-23 -70.5v-266h-161v267q0 43 -23 69.5t-61 26.5q-37 0 -60 -26.5t-23 -70.5v-266h-158v500h158v-41q54 49 122 49q95 0 152 -70q60 70 176 70z" />
    <glyph glyph-name="n" unicode="n" horiz-adv-x="572" 
d="M323 508q93 0 150 -67t57 -169v-272h-162v267q0 43 -22.5 69.5t-60.5 26.5q-37 0 -60 -26.5t-23 -70.5v-266h-158v500h158v-41q54 49 121 49z" />
    <glyph glyph-name="o" unicode="o" horiz-adv-x="584" 
d="M292 -8q-106 0 -182 76t-76 182t76 182t182 76q107 0 182.5 -75.5t75.5 -182.5t-75.5 -182.5t-182.5 -75.5zM298 140q45 0 72.5 30.5t27.5 79.5q0 50 -27.5 80t-72.5 30t-72.5 -30t-27.5 -80q0 -49 27.5 -79.5t72.5 -30.5z" />
    <glyph glyph-name="p" unicode="p" 
d="M314 508q107 0 182.5 -75.5t75.5 -182.5t-75.5 -182.5t-182.5 -75.5q-60 0 -112 26v-263h-158v745h158v-18q52 26 112 26zM309 140q45 0 72.5 30.5t27.5 79.5q0 50 -27.5 80t-72.5 30t-72.5 -30t-27.5 -80q0 -49 27.5 -79.5t72.5 -30.5z" />
    <glyph glyph-name="q" unicode="q" 
d="M404 500h158v-745h-158v263q-52 -26 -112 -26q-107 0 -182.5 75.5t-75.5 182.5t75.5 182.5t182.5 75.5q60 0 112 -26v18zM297 140q45 0 72.5 30.5t27.5 79.5q0 50 -27.5 80t-72.5 30t-72.5 -30t-27.5 -80q0 -49 27.5 -79.5t72.5 -30.5z" />
    <glyph glyph-name="r" unicode="r" horiz-adv-x="384" 
d="M324 508q29 0 56 -8l-42 -167q-35 30 -53 30q-37 0 -60 -26.5t-23 -70.5v-266h-158v500h158v-41q54 49 122 49z" />
    <glyph glyph-name="s" unicode="s" horiz-adv-x="512" 
d="M263 -8q-43 0 -83 11t-67 27t-48 32t-31 27l-10 11l98 88q7 -7 19.5 -17t50.5 -26.5t75 -16.5q27 0 43.5 6.5t16.5 15.5q0 8 -30 16t-72.5 20t-84.5 30t-72 53t-30 82q0 71 56 114t154 43q43 0 83 -11t67.5 -27t48.5 -32t31 -27l10 -11l-98 -88q-7 7 -19.5 17t-50.5 26.5
t-75 16.5q-27 0 -44 -6.5t-17 -15.5q0 -8 30 -16t72.5 -20t85 -30t72.5 -53t30 -82q0 -71 -56.5 -114t-154.5 -43z" />
    <glyph glyph-name="t" unicode="t" horiz-adv-x="383" 
d="M293 175l66 -128q-6 -6 -18 -15t-49.5 -24.5t-77.5 -15.5q-71 0 -112.5 35t-41.5 111v221h-51v141h51v171h158v-171h103v-141h-103v-170q0 -23 9 -36.5t24 -13.5q19 0 30.5 10t11.5 26z" />
    <glyph glyph-name="u" unicode="u" horiz-adv-x="572" 
d="M370 500h158v-500h-158v41q-54 -49 -121 -49q-93 0 -150 67t-57 169v272h162v-267q0 -43 22.5 -69.5t60.5 -26.5q37 0 60 26.5t23 70.5v266z" />
    <glyph glyph-name="v" unicode="v" horiz-adv-x="538" 
d="M361 500h158l-171 -500h-158l-171 500h158l92 -269z" />
    <glyph glyph-name="w" unicode="w" horiz-adv-x="860" 
d="M683 500h158l-171 -500h-158l-82 272l-82 -272h-158l-171 500h158l92 -269l92 269h138l92 -269z" />
    <glyph glyph-name="x" unicode="x" horiz-adv-x="526" 
d="M507 0h-168l-76 123l-76 -123h-168l160 258l-150 242h168l66 -106l66 106h168l-150 -242z" />
    <glyph glyph-name="y" unicode="y" horiz-adv-x="538" 
d="M361 500h158l-253 -680h-158l84 226l-173 454h158l93 -244z" />
    <glyph glyph-name="z" unicode="z" horiz-adv-x="542" 
d="M508 500v-76l-218 -276h218v-148h-474v76l217 276h-217v148h474z" />
    <glyph glyph-name="braceleft" unicode="{" horiz-adv-x="376" 
d="M376 -209q-68 0 -119 21t-77.5 54.5t-38.5 68t-12 69.5v180q0 34 -23 62.5t-70 28.5v121q48 0 70.5 28t22.5 63v179q0 35 12 69.5t38.5 68.5t77.5 55t119 21v-158q-88 0 -88 -53v-202q0 -26 -7 -49t-17 -37.5t-20 -25.5t-17 -15l-7 -5l7.5 -5t16 -15t20.5 -26t16.5 -37.5
t7.5 -48.5v-201q0 -53 88 -53v-158z" />
    <glyph glyph-name="bar" unicode="|" horiz-adv-x="315" 
d="M88 -180v1031h139v-1031h-139z" />
    <glyph glyph-name="braceright" unicode="}" horiz-adv-x="376" 
d="M0 -209v158q88 0 88 53v201q0 40 17 73.5t34 46.5l17 13l-7.5 5t-16 14.5t-20.5 25.5t-16.5 37.5t-7.5 49.5v201q0 53 -88 53v158q68 0 119 -21t77.5 -55t38.5 -68.5t12 -69.5v-179q0 -34 23 -62.5t70 -28.5v-121q-47 0 -70 -28.5t-23 -62.5v-179q0 -35 -12 -69.5
t-38.5 -68.5t-77.5 -55t-119 -21z" />
    <glyph glyph-name="asciitilde" unicode="~" horiz-adv-x="633" 
d="M421 488q-46 0 -102 29.5t-91 29.5q-20 0 -39 -14.5t-28 -29.5l-9 -15l-116 60q3 5 8 14t22.5 31.5t36.5 40t49.5 31.5t62.5 14q52 0 109.5 -30.5t83.5 -30.5q22 0 42 13t30 25l9 13l108 -72q-3 -4 -8 -11.5t-22.5 -26.5t-37 -33t-49 -26t-59.5 -12z" />
    <glyph glyph-name="periodcentered" unicode="&#xb7;" horiz-adv-x="230" 
d="M36 0v158h158v-158h-158z" />
    <glyph glyph-name="quoteleft" unicode="&#x2018;" horiz-adv-x="245" 
d="M36 469l67 202h106l-48 -202h-125z" />
    <glyph glyph-name="quoteright" unicode="&#x2019;" horiz-adv-x="245" 
d="M36 469l48 202h125l-67 -202h-106z" />
    <glyph glyph-name="quotedblleft" unicode="&#x201c;" horiz-adv-x="419" 
d="M36 469l68 202h106l-49 -202h-125zM210 469l67 202h106l-48 -202h-125z" />
    <glyph glyph-name="quotedblright" unicode="&#x201d;" horiz-adv-x="419" 
d="M36 469l49 202h125l-68 -202h-106zM210 469l48 202h125l-68 -202h-105z" />
    <glyph glyph-name="bullet" unicode="&#x2022;" horiz-adv-x="340" 
d="M36 220v232h232v-232h-232z" />
    <glyph glyph-name="fraction" unicode="&#x2044;" horiz-adv-x="600" 
 />
    <glyph glyph-name="minus" unicode="&#x2212;" horiz-adv-x="412" 
d="M44 267v138h324v-138h-324z" />
    </font>
</defs>
</svg>
